<?xml version="1.0" encoding="UTF-8"?>
<svg xmlns="http://www.w3.org/2000/svg" xmlns:xlink="http://www.w3.org/1999/xlink" width="48pt" height="48pt" viewBox="0 0 48 48" version="1.1">
<g id="surface4632787">
<path style=" stroke:none;fill-rule:nonzero;fill:rgb(100%,56.078434%,0%);fill-opacity:1;" d="M 12.800781 33.101562 L 23.464844 13.105469 C 23.6875 12.683594 24.296875 12.691406 24.507812 13.121094 L 28.199219 20.5 Z M 12.800781 33.101562 "/>
<path style=" stroke:none;fill-rule:nonzero;fill:rgb(100%,62.7451%,0%);fill-opacity:1;" d="M 12.800781 33.09375 L 16.683594 9.15625 C 16.785156 8.527344 17.625 8.394531 17.917969 8.957031 L 25.398438 23.292969 Z M 12.800781 33.09375 "/>
<path style=" stroke:none;fill-rule:nonzero;fill:rgb(100%,43.529412%,0%);fill-opacity:1;" d="M 12.804688 33.089844 L 12.945312 32.980469 L 25.214844 22.941406 L 21.753906 16.308594 Z M 12.804688 33.089844 "/>
<path style=" stroke:none;fill-rule:nonzero;fill:rgb(100%,76.862746%,0%);fill-opacity:1;" d="M 12.800781 33.101562 L 31.464844 15.101562 C 31.859375 14.722656 32.511719 14.945312 32.589844 15.484375 L 35.199219 33.101562 L 24.699219 39.21875 C 24.273438 39.460938 23.753906 39.460938 23.328125 39.21875 Z M 12.800781 33.101562 "/>
<path style=" stroke:none;fill-rule:nonzero;fill:rgb(43.529412%,22.352941%,76.862746%);fill-opacity:1;" d="M 9.269531 42.21875 L 9.269531 42.964844 L 6.355469 42.964844 L 6.355469 46.035156 L 5.441406 46.035156 L 5.441406 39.089844 L 9.742188 39.089844 L 9.742188 39.84375 L 6.355469 39.84375 L 6.355469 42.21875 Z M 11.660156 40.871094 L 11.660156 46.035156 L 10.777344 46.035156 L 10.777344 40.871094 Z M 10.707031 39.503906 C 10.707031 39.363281 10.75 39.242188 10.835938 39.140625 C 10.921875 39.042969 11.054688 38.992188 11.226562 38.992188 C 11.398438 38.992188 11.527344 39.042969 11.617188 39.140625 C 11.707031 39.242188 11.75 39.363281 11.75 39.503906 C 11.75 39.648438 11.707031 39.765625 11.617188 39.863281 C 11.527344 39.957031 11.398438 40.003906 11.226562 40.003906 C 11.054688 40.003906 10.921875 39.957031 10.835938 39.863281 C 10.75 39.765625 10.707031 39.648438 10.707031 39.503906 Z M 15.566406 40.84375 L 15.566406 41.664062 C 15.429688 41.644531 15.285156 41.632812 15.132812 41.632812 C 14.550781 41.632812 14.160156 41.878906 13.953125 42.371094 L 13.953125 46.035156 L 13.070312 46.035156 L 13.070312 40.871094 L 13.929688 40.871094 L 13.945312 41.46875 C 14.234375 41.007812 14.644531 40.777344 15.175781 40.777344 C 15.34375 40.777344 15.476562 40.800781 15.566406 40.84375 Z M 18.425781 46.128906 C 17.726562 46.128906 17.15625 45.898438 16.71875 45.441406 C 16.28125 44.980469 16.0625 44.367188 16.0625 43.59375 L 16.0625 43.433594 C 16.0625 42.921875 16.160156 42.464844 16.355469 42.0625 C 16.550781 41.660156 16.824219 41.347656 17.175781 41.117188 C 17.527344 40.890625 17.90625 40.777344 18.316406 40.777344 C 18.988281 40.777344 19.507812 41 19.878906 41.441406 C 20.253906 41.882812 20.4375 42.515625 20.4375 43.339844 L 20.4375 43.707031 L 16.941406 43.707031 C 16.957031 44.214844 17.105469 44.625 17.390625 44.941406 C 17.675781 45.253906 18.035156 45.410156 18.472656 45.410156 C 18.785156 45.410156 19.050781 45.34375 19.265625 45.21875 C 19.480469 45.089844 19.671875 44.921875 19.832031 44.714844 L 20.371094 45.132812 C 19.941406 45.796875 19.292969 46.128906 18.425781 46.128906 Z M 18.316406 41.503906 C 17.960938 41.503906 17.660156 41.632812 17.417969 41.890625 C 17.179688 42.152344 17.027344 42.515625 16.972656 42.980469 L 19.554688 42.980469 L 19.554688 42.914062 C 19.53125 42.464844 19.410156 42.117188 19.195312 41.871094 C 18.980469 41.625 18.6875 41.503906 18.316406 41.503906 Z M 25.828125 43.433594 L 25.828125 43.507812 C 25.828125 44.300781 25.648438 44.933594 25.285156 45.410156 C 24.921875 45.890625 24.433594 46.128906 23.824219 46.128906 C 23.171875 46.128906 22.667969 45.898438 22.3125 45.4375 L 22.269531 46.035156 L 21.460938 46.035156 L 21.460938 38.707031 L 22.34375 38.707031 L 22.34375 41.441406 C 22.699219 41 23.1875 40.777344 23.816406 40.777344 C 24.441406 40.777344 24.933594 41.015625 25.292969 41.488281 C 25.648438 41.960938 25.828125 42.609375 25.828125 43.433594 Z M 24.945312 43.410156 C 24.945312 42.808594 24.832031 42.34375 24.597656 42.015625 C 24.367188 41.691406 24.03125 41.527344 23.597656 41.527344 C 23.015625 41.527344 22.597656 41.796875 22.34375 42.335938 L 22.34375 44.570312 C 22.613281 45.109375 23.03125 45.382812 23.605469 45.382812 C 24.027344 45.382812 24.359375 45.21875 24.59375 44.890625 C 24.828125 44.5625 24.945312 44.070312 24.945312 43.410156 Z M 31.050781 46.035156 L 30.125 46.035156 C 30.074219 45.933594 30.03125 45.75 30 45.492188 C 29.589844 45.917969 29.101562 46.128906 28.53125 46.128906 C 28.023438 46.128906 27.605469 45.984375 27.28125 45.699219 C 26.953125 45.410156 26.792969 45.046875 26.792969 44.605469 C 26.792969 44.066406 26.996094 43.648438 27.402344 43.351562 C 27.8125 43.054688 28.386719 42.902344 29.128906 42.902344 L 29.988281 42.902344 L 29.988281 42.5 C 29.988281 42.191406 29.894531 41.945312 29.710938 41.761719 C 29.527344 41.578125 29.253906 41.488281 28.894531 41.488281 C 28.582031 41.488281 28.316406 41.566406 28.101562 41.726562 C 27.890625 41.886719 27.785156 42.078125 27.785156 42.304688 L 26.894531 42.304688 C 26.894531 42.046875 26.988281 41.796875 27.171875 41.558594 C 27.351562 41.316406 27.601562 41.128906 27.914062 40.988281 C 28.226562 40.847656 28.570312 40.777344 28.945312 40.777344 C 29.542969 40.777344 30.007812 40.925781 30.34375 41.222656 C 30.679688 41.519531 30.855469 41.929688 30.867188 42.453125 L 30.867188 44.828125 C 30.867188 45.300781 30.929688 45.675781 31.050781 45.957031 Z M 28.660156 45.363281 C 28.9375 45.363281 29.199219 45.289062 29.449219 45.148438 C 29.695312 45.003906 29.875 44.816406 29.988281 44.589844 L 29.988281 43.527344 L 29.296875 43.527344 C 28.214844 43.527344 27.671875 43.84375 27.671875 44.480469 C 27.671875 44.757812 27.765625 44.972656 27.949219 45.128906 C 28.136719 45.285156 28.371094 45.363281 28.660156 45.363281 Z M 35.257812 44.664062 C 35.257812 44.425781 35.167969 44.242188 34.988281 44.109375 C 34.808594 43.976562 34.492188 43.863281 34.046875 43.765625 C 33.601562 43.671875 33.246094 43.558594 32.984375 43.425781 C 32.722656 43.292969 32.527344 43.132812 32.402344 42.945312 C 32.277344 42.761719 32.214844 42.542969 32.214844 42.289062 C 32.214844 41.867188 32.394531 41.507812 32.75 41.214844 C 33.109375 40.925781 33.566406 40.777344 34.121094 40.777344 C 34.707031 40.777344 35.179688 40.929688 35.546875 41.230469 C 35.910156 41.53125 36.09375 41.917969 36.09375 42.390625 L 35.203125 42.390625 C 35.203125 42.148438 35.101562 41.941406 34.898438 41.765625 C 34.691406 41.589844 34.433594 41.503906 34.121094 41.503906 C 33.800781 41.503906 33.550781 41.574219 33.367188 41.710938 C 33.1875 41.851562 33.097656 42.035156 33.097656 42.261719 C 33.097656 42.472656 33.179688 42.632812 33.351562 42.742188 C 33.519531 42.851562 33.820312 42.953125 34.261719 43.050781 C 34.703125 43.152344 35.058594 43.269531 35.332031 43.40625 C 35.605469 43.542969 35.808594 43.707031 35.941406 43.898438 C 36.074219 44.089844 36.140625 44.328125 36.140625 44.605469 C 36.140625 45.066406 35.957031 45.433594 35.585938 45.710938 C 35.21875 45.988281 34.738281 46.128906 34.152344 46.128906 C 33.738281 46.128906 33.371094 46.054688 33.054688 45.910156 C 32.734375 45.761719 32.488281 45.558594 32.308594 45.296875 C 32.128906 45.035156 32.039062 44.75 32.039062 44.445312 L 32.921875 44.445312 C 32.9375 44.742188 33.054688 44.976562 33.277344 45.148438 C 33.496094 45.320312 33.789062 45.410156 34.152344 45.410156 C 34.484375 45.410156 34.75 45.339844 34.953125 45.207031 C 35.15625 45.070312 35.257812 44.890625 35.257812 44.664062 Z M 39.429688 46.128906 C 38.730469 46.128906 38.160156 45.898438 37.722656 45.441406 C 37.285156 44.980469 37.066406 44.367188 37.066406 43.59375 L 37.066406 43.433594 C 37.066406 42.921875 37.164062 42.464844 37.359375 42.0625 C 37.554688 41.660156 37.828125 41.347656 38.179688 41.117188 C 38.53125 40.890625 38.910156 40.777344 39.320312 40.777344 C 39.992188 40.777344 40.511719 41 40.882812 41.441406 C 41.257812 41.882812 41.441406 42.515625 41.441406 43.339844 L 41.441406 43.707031 L 37.945312 43.707031 C 37.960938 44.214844 38.109375 44.625 38.390625 44.941406 C 38.675781 45.253906 39.039062 45.410156 39.476562 45.410156 C 39.789062 45.410156 40.054688 45.34375 40.269531 45.21875 C 40.484375 45.089844 40.675781 44.921875 40.835938 44.714844 L 41.375 45.132812 C 40.945312 45.796875 40.296875 46.128906 39.429688 46.128906 Z M 39.320312 41.503906 C 38.964844 41.503906 38.664062 41.632812 38.421875 41.890625 C 38.183594 42.152344 38.03125 42.515625 37.976562 42.980469 L 40.558594 42.980469 L 40.558594 42.914062 C 40.535156 42.464844 40.414062 42.117188 40.199219 41.871094 C 39.984375 41.625 39.691406 41.503906 39.320312 41.503906 Z M 39.320312 41.503906 "/>
</g>
</svg>
