<?xml version="1.0" encoding="UTF-8"?>
<svg xmlns="http://www.w3.org/2000/svg" xmlns:xlink="http://www.w3.org/1999/xlink" width="48pt" height="48pt" viewBox="0 0 48 48" version="1.1">
<g id="surface4527670">
<path style=" stroke:none;fill-rule:nonzero;fill:rgb(100%,56.078434%,0%);fill-opacity:1;" d="M 12.800781 33.101562 L 23.464844 13.105469 C 23.6875 12.683594 24.296875 12.691406 24.507812 13.121094 L 28.199219 20.5 Z M 12.800781 33.101562 "/>
<path style=" stroke:none;fill-rule:nonzero;fill:rgb(100%,62.7451%,0%);fill-opacity:1;" d="M 12.800781 33.09375 L 16.683594 9.15625 C 16.785156 8.527344 17.625 8.394531 17.917969 8.957031 L 25.398438 23.292969 Z M 12.800781 33.09375 "/>
<path style=" stroke:none;fill-rule:nonzero;fill:rgb(100%,43.529412%,0%);fill-opacity:1;" d="M 12.804688 33.089844 L 12.945312 32.980469 L 25.214844 22.941406 L 21.753906 16.308594 Z M 12.804688 33.089844 "/>
<path style=" stroke:none;fill-rule:nonzero;fill:rgb(100%,76.862746%,0%);fill-opacity:1;" d="M 12.800781 33.101562 L 31.464844 15.101562 C 31.859375 14.722656 32.511719 14.945312 32.589844 15.484375 L 35.199219 33.101562 L 24.699219 39.21875 C 24.273438 39.460938 23.753906 39.460938 23.328125 39.21875 Z M 12.800781 33.101562 "/>
<path style=" stroke:none;fill-rule:nonzero;fill:rgb(60.784316%,36.078432%,88.235295%);fill-opacity:1;" d="M 11.242188 41.953125 L 11.242188 42.644531 L 8.558594 42.644531 L 8.558594 45.464844 L 7.71875 45.464844 L 7.71875 39.078125 L 11.675781 39.078125 L 11.675781 39.769531 L 8.558594 39.769531 L 8.558594 41.953125 Z M 13.4375 40.71875 L 13.4375 45.464844 L 12.628906 45.464844 L 12.628906 40.71875 Z M 12.5625 39.457031 C 12.5625 39.328125 12.601562 39.214844 12.683594 39.125 C 12.761719 39.035156 12.882812 38.988281 13.039062 38.988281 C 13.195312 38.988281 13.316406 39.035156 13.398438 39.125 C 13.480469 39.214844 13.523438 39.328125 13.523438 39.457031 C 13.523438 39.589844 13.480469 39.699219 13.398438 39.789062 C 13.316406 39.875 13.195312 39.917969 13.039062 39.917969 C 12.882812 39.917969 12.761719 39.875 12.683594 39.789062 C 12.601562 39.699219 12.5625 39.589844 12.5625 39.457031 Z M 17.03125 40.691406 L 17.03125 41.445312 C 16.910156 41.425781 16.777344 41.414062 16.632812 41.414062 C 16.101562 41.414062 15.738281 41.640625 15.550781 42.09375 L 15.550781 45.464844 L 14.738281 45.464844 L 14.738281 40.71875 L 15.527344 40.71875 L 15.539062 41.265625 C 15.808594 40.84375 16.183594 40.628906 16.671875 40.628906 C 16.832031 40.628906 16.949219 40.652344 17.03125 40.691406 Z M 19.664062 45.554688 C 19.023438 45.554688 18.5 45.339844 18.09375 44.917969 C 17.691406 44.496094 17.488281 43.929688 17.488281 43.222656 L 17.488281 43.074219 C 17.488281 42.601562 17.578125 42.183594 17.757812 41.8125 C 17.9375 41.441406 18.191406 41.152344 18.511719 40.941406 C 18.835938 40.734375 19.1875 40.628906 19.5625 40.628906 C 20.179688 40.628906 20.660156 40.832031 21.003906 41.238281 C 21.347656 41.644531 21.519531 42.226562 21.519531 42.988281 L 21.519531 43.324219 L 18.300781 43.324219 C 18.3125 43.792969 18.449219 44.171875 18.710938 44.460938 C 18.972656 44.746094 19.304688 44.890625 19.707031 44.890625 C 19.996094 44.890625 20.238281 44.832031 20.4375 44.714844 C 20.636719 44.597656 20.8125 44.441406 20.960938 44.25 L 21.457031 44.636719 C 21.058594 45.246094 20.460938 45.554688 19.664062 45.554688 Z M 19.5625 41.296875 C 19.234375 41.296875 18.960938 41.414062 18.738281 41.652344 C 18.515625 41.890625 18.378906 42.226562 18.328125 42.65625 L 20.707031 42.65625 L 20.707031 42.59375 C 20.683594 42.183594 20.570312 41.863281 20.371094 41.636719 C 20.171875 41.410156 19.902344 41.296875 19.5625 41.296875 Z M 26.476562 43.074219 L 26.476562 43.144531 C 26.476562 43.871094 26.308594 44.453125 25.976562 44.894531 C 25.640625 45.332031 25.195312 45.554688 24.632812 45.554688 C 24.03125 45.554688 23.570312 45.339844 23.242188 44.917969 L 23.203125 45.464844 L 22.457031 45.464844 L 22.457031 38.726562 L 23.269531 38.726562 L 23.269531 41.238281 C 23.59375 40.832031 24.046875 40.628906 24.625 40.628906 C 25.199219 40.628906 25.652344 40.847656 25.980469 41.28125 C 26.3125 41.71875 26.476562 42.316406 26.476562 43.074219 Z M 25.664062 43.054688 C 25.664062 42.5 25.554688 42.070312 25.34375 41.769531 C 25.128906 41.46875 24.820312 41.316406 24.421875 41.316406 C 23.886719 41.316406 23.5 41.566406 23.269531 42.0625 L 23.269531 44.117188 C 23.515625 44.613281 23.90625 44.863281 24.429688 44.863281 C 24.820312 44.863281 25.121094 44.714844 25.339844 44.414062 C 25.554688 44.113281 25.664062 43.660156 25.664062 43.054688 Z M 31.28125 45.464844 L 30.425781 45.464844 C 30.378906 45.371094 30.34375 45.203125 30.3125 44.964844 C 29.9375 45.355469 29.484375 45.554688 28.960938 45.554688 C 28.496094 45.554688 28.113281 45.421875 27.8125 45.15625 C 27.511719 44.890625 27.359375 44.554688 27.359375 44.148438 C 27.359375 43.65625 27.550781 43.273438 27.925781 43 C 28.300781 42.722656 28.832031 42.585938 29.511719 42.585938 L 30.300781 42.585938 L 30.300781 42.214844 C 30.300781 41.929688 30.214844 41.703125 30.046875 41.535156 C 29.878906 41.367188 29.628906 41.28125 29.296875 41.28125 C 29.007812 41.28125 28.765625 41.355469 28.566406 41.503906 C 28.371094 41.648438 28.273438 41.828125 28.273438 42.035156 L 27.457031 42.035156 C 27.457031 41.796875 27.542969 41.570312 27.710938 41.347656 C 27.878906 41.125 28.105469 40.953125 28.394531 40.824219 C 28.683594 40.695312 29 40.628906 29.34375 40.628906 C 29.890625 40.628906 30.320312 40.765625 30.628906 41.039062 C 30.941406 41.3125 31.101562 41.691406 31.113281 42.167969 L 31.113281 44.355469 C 31.113281 44.789062 31.167969 45.136719 31.28125 45.394531 Z M 29.082031 44.847656 C 29.335938 44.847656 29.578125 44.78125 29.804688 44.648438 C 30.035156 44.515625 30.199219 44.347656 30.300781 44.136719 L 30.300781 43.164062 L 29.664062 43.164062 C 28.671875 43.164062 28.171875 43.453125 28.171875 44.035156 C 28.171875 44.289062 28.257812 44.488281 28.425781 44.632812 C 28.597656 44.773438 28.816406 44.847656 29.082031 44.847656 Z M 35.148438 44.207031 C 35.148438 43.988281 35.066406 43.816406 34.902344 43.695312 C 34.734375 43.574219 34.449219 43.46875 34.039062 43.382812 C 33.625 43.292969 33.300781 43.1875 33.058594 43.066406 C 32.816406 42.941406 32.640625 42.796875 32.523438 42.625 C 32.40625 42.457031 32.351562 42.253906 32.351562 42.019531 C 32.351562 41.632812 32.515625 41.300781 32.84375 41.03125 C 33.171875 40.765625 33.59375 40.628906 34.105469 40.628906 C 34.644531 40.628906 35.082031 40.769531 35.414062 41.046875 C 35.75 41.324219 35.917969 41.679688 35.917969 42.113281 L 35.101562 42.113281 C 35.101562 41.890625 35.007812 41.699219 34.820312 41.539062 C 34.628906 41.378906 34.394531 41.296875 34.105469 41.296875 C 33.808594 41.296875 33.578125 41.359375 33.414062 41.488281 C 33.246094 41.617188 33.164062 41.785156 33.164062 41.992188 C 33.164062 42.191406 33.238281 42.339844 33.394531 42.4375 C 33.550781 42.539062 33.828125 42.632812 34.234375 42.722656 C 34.640625 42.8125 34.96875 42.921875 35.21875 43.046875 C 35.472656 43.171875 35.65625 43.324219 35.777344 43.503906 C 35.902344 43.679688 35.960938 43.894531 35.960938 44.148438 C 35.960938 44.574219 35.792969 44.914062 35.453125 45.167969 C 35.113281 45.425781 34.671875 45.554688 34.132812 45.554688 C 33.75 45.554688 33.414062 45.484375 33.121094 45.351562 C 32.828125 45.214844 32.601562 45.027344 32.4375 44.789062 C 32.269531 44.546875 32.1875 44.285156 32.1875 44.003906 L 33 44.003906 C 33.015625 44.277344 33.125 44.492188 33.328125 44.652344 C 33.53125 44.8125 33.796875 44.890625 34.132812 44.890625 C 34.4375 44.890625 34.6875 44.828125 34.871094 44.703125 C 35.058594 44.578125 35.148438 44.414062 35.148438 44.207031 Z M 38.988281 45.554688 C 38.34375 45.554688 37.820312 45.339844 37.417969 44.917969 C 37.011719 44.496094 36.8125 43.929688 36.8125 43.222656 L 36.8125 43.074219 C 36.8125 42.601562 36.902344 42.183594 37.082031 41.8125 C 37.261719 41.441406 37.515625 41.152344 37.835938 40.941406 C 38.160156 40.734375 38.511719 40.628906 38.886719 40.628906 C 39.503906 40.628906 39.984375 40.832031 40.328125 41.238281 C 40.667969 41.644531 40.839844 42.226562 40.839844 42.988281 L 40.839844 43.324219 L 37.625 43.324219 C 37.636719 43.792969 37.773438 44.171875 38.035156 44.460938 C 38.296875 44.746094 38.628906 44.890625 39.03125 44.890625 C 39.320312 44.890625 39.5625 44.832031 39.761719 44.714844 C 39.960938 44.597656 40.132812 44.441406 40.28125 44.25 L 40.777344 44.636719 C 40.378906 45.246094 39.785156 45.554688 38.988281 45.554688 Z M 38.886719 41.296875 C 38.558594 41.296875 38.285156 41.414062 38.0625 41.652344 C 37.839844 41.890625 37.703125 42.226562 37.648438 42.65625 L 40.027344 42.65625 L 40.027344 42.59375 C 40.003906 42.183594 39.894531 41.863281 39.695312 41.636719 C 39.496094 41.410156 39.226562 41.296875 38.886719 41.296875 Z M 38.886719 41.296875 "/>
</g>
</svg>
