<?xml version="1.0" encoding="UTF-8"?>
<svg xmlns="http://www.w3.org/2000/svg" xmlns:xlink="http://www.w3.org/1999/xlink" width="48pt" height="48pt" viewBox="0 0 48 48" version="1.1">
<g id="surface23209318">
<path style=" stroke:none;fill-rule:nonzero;fill:rgb(36.470589%,25.098041%,21.568628%);fill-opacity:1;" d="M 36.960938 19.175781 C 36.960938 33.9375 24 38.398438 24 38.398438 C 24 38.398438 11.039062 33.9375 11.039062 19.175781 C 11.039062 17.375 11.183594 15.863281 11.328125 14.640625 C 11.542969 12.839844 12.769531 11.398438 14.496094 10.96875 C 16.726562 10.320312 20.257812 9.601562 24 9.601562 C 27.742188 9.601562 31.273438 10.320312 33.574219 10.96875 C 35.304688 11.398438 36.527344 12.910156 36.742188 14.640625 C 36.816406 15.863281 36.960938 17.449219 36.960938 19.175781 Z M 36.960938 19.175781 "/>
<path style=" stroke:none;fill-rule:nonzero;fill:rgb(29.803923%,68.627453%,31.37255%);fill-opacity:1;" d="M 24 11.761719 C 27.527344 11.761719 30.839844 12.480469 33 13.054688 C 33.863281 13.273438 34.441406 13.992188 34.585938 14.929688 C 34.726562 16.296875 34.800781 17.734375 34.800781 19.175781 C 34.800781 30.40625 26.519531 34.945312 24 36.023438 C 21.480469 34.871094 13.199219 30.335938 13.199219 19.175781 C 13.199219 17.734375 13.273438 16.296875 13.414062 14.929688 C 13.488281 13.992188 14.136719 13.273438 15 13.054688 C 17.160156 12.480469 20.472656 11.761719 24 11.761719 M 24 9.601562 C 20.257812 9.601562 16.726562 10.320312 14.425781 10.96875 C 12.769531 11.398438 11.472656 12.910156 11.328125 14.640625 C 11.183594 15.863281 11.039062 17.449219 11.039062 19.175781 C 11.039062 33.9375 24 38.398438 24 38.398438 C 24 38.398438 36.960938 33.9375 36.960938 19.175781 C 36.960938 17.375 36.816406 15.863281 36.671875 14.640625 C 36.457031 12.839844 35.230469 11.398438 33.503906 10.96875 C 31.273438 10.320312 27.742188 9.601562 24 9.601562 Z M 24 9.601562 "/>
<path style=" stroke:none;fill-rule:nonzero;fill:rgb(86.274511%,92.941177%,78.431374%);fill-opacity:1;" d="M 23.28125 26.878906 L 24.71875 26.878906 L 24.71875 32.640625 L 23.28125 32.640625 Z M 23.28125 26.878906 "/>
<path style=" stroke:none;fill-rule:nonzero;fill:rgb(29.803923%,68.627453%,31.37255%);fill-opacity:1;" d="M 24 13.921875 C 24 13.921875 19.679688 17.519531 19.679688 23.28125 C 19.679688 27.023438 22.054688 29.398438 23.28125 30.480469 L 24 28.320312 L 24.71875 30.480469 C 25.945312 29.398438 28.320312 27.023438 28.320312 23.28125 C 28.320312 17.519531 24 13.921875 24 13.921875 Z M 24 13.921875 "/>
<path style=" stroke:none;fill-rule:nonzero;fill:rgb(50.588238%,78.039217%,51.764709%);fill-opacity:1;" d="M 24 13.921875 C 24 13.921875 19.679688 17.519531 19.679688 23.28125 C 19.679688 27.023438 22.054688 29.398438 23.28125 30.480469 L 24 28.320312 Z M 24 13.921875 "/>
<path style=" stroke:none;fill-rule:nonzero;fill:rgb(38.82353%,17.254902%,41.176471%);fill-opacity:1;" d="M 4.265625 37.152344 L 5.433594 37.152344 L 7.675781 42.746094 L 9.917969 37.152344 L 11.089844 37.152344 L 11.089844 44.007812 L 10.183594 44.007812 L 10.183594 41.335938 L 10.269531 38.453125 L 8.019531 44.007812 L 7.328125 44.007812 L 5.082031 38.46875 L 5.167969 41.335938 L 5.167969 44.007812 L 4.265625 44.007812 Z M 12.316406 41.472656 L 12.316406 41.414062 C 12.316406 40.914062 12.417969 40.464844 12.613281 40.0625 C 12.808594 39.667969 13.082031 39.359375 13.429688 39.140625 C 13.78125 38.925781 14.183594 38.816406 14.632812 38.816406 C 15.324219 38.816406 15.886719 39.058594 16.316406 39.539062 C 16.742188 40.015625 16.957031 40.65625 16.957031 41.453125 L 16.957031 41.515625 C 16.957031 42.011719 16.863281 42.457031 16.671875 42.851562 C 16.480469 43.246094 16.210938 43.550781 15.855469 43.773438 C 15.503906 43.992188 15.097656 44.101562 14.640625 44.101562 C 13.949219 44.101562 13.390625 43.859375 12.960938 43.378906 C 12.53125 42.898438 12.316406 42.265625 12.316406 41.472656 Z M 13.195312 41.515625 C 13.195312 42.082031 13.324219 42.535156 13.589844 42.878906 C 13.847656 43.21875 14.199219 43.390625 14.640625 43.390625 C 15.082031 43.390625 15.433594 43.214844 15.695312 42.871094 C 15.957031 42.523438 16.085938 42.035156 16.085938 41.414062 C 16.085938 40.851562 15.953125 40.398438 15.6875 40.050781 C 15.421875 39.707031 15.070312 39.53125 14.632812 39.53125 C 14.199219 39.53125 13.855469 39.703125 13.589844 40.046875 C 13.328125 40.386719 13.195312 40.878906 13.195312 41.515625 Z M 18.046875 38.910156 L 18.871094 38.910156 L 18.902344 39.550781 C 19.289062 39.0625 19.800781 38.816406 20.429688 38.816406 C 21.503906 38.816406 22.046875 39.425781 22.058594 40.640625 L 22.058594 44.007812 L 21.183594 44.007812 L 21.183594 40.636719 C 21.183594 40.269531 21.097656 39.996094 20.933594 39.820312 C 20.769531 39.644531 20.511719 39.554688 20.164062 39.554688 C 19.882812 39.554688 19.632812 39.632812 19.417969 39.78125 C 19.207031 39.933594 19.039062 40.128906 18.921875 40.375 L 18.921875 44.007812 L 18.046875 44.007812 Z M 23.164062 41.417969 C 23.164062 40.621094 23.347656 39.992188 23.714844 39.523438 C 24.082031 39.050781 24.566406 38.816406 25.171875 38.816406 C 25.796875 38.816406 26.28125 39.035156 26.628906 39.476562 L 26.671875 38.910156 L 27.46875 38.910156 L 27.46875 43.882812 C 27.46875 44.542969 27.273438 45.0625 26.882812 45.441406 C 26.492188 45.824219 25.964844 46.011719 25.304688 46.011719 C 24.9375 46.011719 24.578125 45.933594 24.226562 45.777344 C 23.875 45.621094 23.609375 45.40625 23.421875 45.132812 L 23.875 44.609375 C 24.246094 45.070312 24.703125 45.300781 25.246094 45.300781 C 25.667969 45.300781 26 45.183594 26.238281 44.941406 C 26.472656 44.703125 26.59375 44.367188 26.59375 43.9375 L 26.59375 43.5 C 26.242188 43.898438 25.769531 44.101562 25.164062 44.101562 C 24.566406 44.101562 24.085938 43.859375 23.71875 43.378906 C 23.347656 42.898438 23.164062 42.246094 23.164062 41.417969 Z M 24.039062 41.515625 C 24.039062 42.089844 24.15625 42.542969 24.390625 42.871094 C 24.628906 43.199219 24.957031 43.363281 25.378906 43.363281 C 25.929688 43.363281 26.335938 43.113281 26.59375 42.613281 L 26.59375 40.285156 C 26.324219 39.800781 25.925781 39.554688 25.390625 39.554688 C 24.96875 39.554688 24.636719 39.722656 24.398438 40.050781 C 24.160156 40.378906 24.039062 40.867188 24.039062 41.515625 Z M 28.550781 41.472656 L 28.550781 41.414062 C 28.550781 40.914062 28.648438 40.464844 28.84375 40.0625 C 29.042969 39.667969 29.316406 39.359375 29.664062 39.140625 C 30.015625 38.925781 30.414062 38.816406 30.863281 38.816406 C 31.558594 38.816406 32.117188 39.058594 32.546875 39.539062 C 32.972656 40.015625 33.1875 40.65625 33.1875 41.453125 L 33.1875 41.515625 C 33.1875 42.011719 33.09375 42.457031 32.90625 42.851562 C 32.714844 43.246094 32.445312 43.550781 32.089844 43.773438 C 31.734375 43.992188 31.332031 44.101562 30.871094 44.101562 C 30.183594 44.101562 29.621094 43.859375 29.195312 43.378906 C 28.765625 42.898438 28.550781 42.265625 28.550781 41.472656 Z M 29.425781 41.515625 C 29.425781 42.082031 29.558594 42.535156 29.820312 42.878906 C 30.082031 43.21875 30.433594 43.390625 30.871094 43.390625 C 31.316406 43.390625 31.667969 43.214844 31.925781 42.871094 C 32.1875 42.523438 32.320312 42.035156 32.320312 41.414062 C 32.320312 40.851562 32.1875 40.398438 31.921875 40.050781 C 31.65625 39.707031 31.304688 39.53125 30.863281 39.53125 C 30.433594 39.53125 30.085938 39.703125 29.824219 40.046875 C 29.558594 40.386719 29.425781 40.878906 29.425781 41.515625 Z M 36.316406 44.007812 L 34.417969 44.007812 L 34.417969 37.152344 L 36.355469 37.152344 C 36.949219 37.152344 37.480469 37.28125 37.9375 37.542969 C 38.394531 37.808594 38.75 38.183594 38.996094 38.671875 C 39.25 39.15625 39.375 39.714844 39.378906 40.347656 L 39.378906 40.785156 C 39.378906 41.433594 39.253906 42 39.003906 42.484375 C 38.753906 42.972656 38.398438 43.34375 37.933594 43.605469 C 37.472656 43.867188 36.933594 44 36.316406 44.007812 Z M 36.378906 37.894531 L 35.324219 37.894531 L 35.324219 43.265625 L 36.273438 43.265625 C 36.972656 43.265625 37.511719 43.050781 37.902344 42.617188 C 38.289062 42.183594 38.484375 41.566406 38.484375 40.769531 L 38.484375 40.367188 C 38.484375 39.585938 38.300781 38.984375 37.933594 38.550781 C 37.570312 38.121094 37.050781 37.902344 36.378906 37.894531 Z M 43.121094 44.007812 L 40.742188 44.007812 L 40.742188 37.152344 L 42.984375 37.152344 C 43.730469 37.152344 44.289062 37.304688 44.664062 37.609375 C 45.039062 37.917969 45.226562 38.375 45.226562 38.976562 C 45.226562 39.296875 45.136719 39.582031 44.953125 39.828125 C 44.769531 40.074219 44.523438 40.265625 44.210938 40.398438 C 44.578125 40.503906 44.871094 40.699219 45.089844 40.992188 C 45.300781 41.28125 45.410156 41.628906 45.410156 42.03125 C 45.410156 42.644531 45.210938 43.128906 44.8125 43.480469 C 44.414062 43.832031 43.847656 44.007812 43.121094 44.007812 Z M 43.15625 40.800781 L 41.648438 40.800781 L 41.648438 43.265625 L 43.140625 43.265625 C 43.5625 43.265625 43.894531 43.15625 44.136719 42.941406 C 44.378906 42.722656 44.5 42.421875 44.5 42.039062 C 44.5 41.210938 44.050781 40.800781 43.15625 40.800781 Z M 41.648438 37.894531 L 41.648438 40.074219 L 43.011719 40.074219 C 43.410156 40.074219 43.726562 39.976562 43.960938 39.777344 C 44.199219 39.582031 44.320312 39.3125 44.320312 38.972656 C 44.320312 38.59375 44.207031 38.320312 43.988281 38.152344 C 43.769531 37.980469 43.433594 37.894531 42.984375 37.894531 Z M 41.648438 37.894531 "/>
</g>
</svg>
