<?xml version="1.0" encoding="UTF-8"?>
<svg xmlns="http://www.w3.org/2000/svg" xmlns:xlink="http://www.w3.org/1999/xlink" width="48pt" height="48pt" viewBox="0 0 48 48" version="1.1">
<g id="surface4398196">
<path style="fill-rule:nonzero;fill:rgb(48.627451%,14.509805%,62.7451%);fill-opacity:1;stroke-width:10;stroke-linecap:butt;stroke-linejoin:round;stroke:rgb(20.392157%,8.627451%,63.529414%);stroke-opacity:1;stroke-miterlimit:10;" d="M 0.00118494 53.754148 L 171.998816 53.754148 L 171.998816 114.661335 L 86.000001 114.661335 L 86.000001 125.41489 L 46.585111 125.41489 L 46.585111 114.661335 L 0.00118494 114.661335 Z M 0.00118494 53.754148 " transform="matrix(0.263721,0,0,0.263721,1.32,1.32)"/>
<path style="fill-rule:nonzero;fill:rgb(100%,100%,100%);fill-opacity:1;stroke-width:10;stroke-linecap:butt;stroke-linejoin:round;stroke:rgb(20.392157%,8.627451%,63.529414%);stroke-opacity:1;stroke-miterlimit:10;" d="M 10.75474 64.492891 L 46.585111 64.492891 L 46.585111 103.922592 L 39.416074 103.922592 L 39.416074 75.246446 L 28.662519 75.246446 L 28.662519 103.922592 L 10.75474 103.922592 Z M 93.169037 64.492891 L 93.169037 103.922592 L 75.246446 103.922592 L 75.246446 114.661335 L 57.338666 114.661335 L 57.338666 64.492891 Z M 86.000001 75.246446 L 75.246446 75.246446 L 75.246446 93.169037 L 86.000001 93.169037 Z M 161.245261 64.492891 L 161.245261 103.922592 L 154.076225 103.922592 L 154.076225 75.246446 L 143.337482 75.246446 L 143.337482 103.922592 L 132.583927 103.922592 L 132.583927 75.246446 L 121.830372 75.246446 L 121.830372 103.922592 L 103.922592 103.922592 L 103.922592 64.492891 Z M 161.245261 64.492891 " transform="matrix(0.263721,0,0,0.263721,1.32,1.32)"/>
<path style=" stroke:none;fill-rule:nonzero;fill:rgb(61.56863%,11.372549%,77.64706%);fill-opacity:1;" d="M 1.320312 15.496094 L 46.679688 15.496094 L 46.679688 31.558594 L 24 31.558594 L 24 34.394531 L 13.605469 34.394531 L 13.605469 31.558594 L 1.320312 31.558594 Z M 1.320312 15.496094 "/>
<path style=" stroke:none;fill-rule:nonzero;fill:rgb(100%,100%,100%);fill-opacity:1;" d="M 4.15625 28.726562 L 8.878906 28.726562 L 8.878906 21.164062 L 11.714844 21.164062 L 11.714844 28.726562 L 13.605469 28.726562 L 13.605469 18.328125 L 4.15625 18.328125 Z M 16.441406 18.328125 L 16.441406 31.558594 L 21.164062 31.558594 L 21.164062 28.726562 L 25.890625 28.726562 L 25.890625 18.328125 Z M 24 25.890625 L 21.164062 25.890625 L 21.164062 21.164062 L 24 21.164062 Z M 28.726562 18.328125 L 28.726562 28.726562 L 33.449219 28.726562 L 33.449219 21.164062 L 36.285156 21.164062 L 36.285156 28.726562 L 39.121094 28.726562 L 39.121094 21.164062 L 41.953125 21.164062 L 41.953125 28.726562 L 43.84375 28.726562 L 43.84375 18.328125 Z M 28.726562 18.328125 "/>
</g>
</svg>
