<?xml version="1.0" encoding="UTF-8"?>
<svg xmlns="http://www.w3.org/2000/svg" xmlns:xlink="http://www.w3.org/1999/xlink" width="64pt" height="64pt" viewBox="0 0 64 64" version="1.1">
<g id="surface4604723">
<path style=" stroke:none;fill-rule:nonzero;fill:rgb(36.862746%,19.607843%,72.156864%);fill-opacity:1;" d="M 36.199219 32.699219 C 36.199219 35.019531 34.320312 36.898438 32 36.898438 C 29.679688 36.898438 27.800781 35.019531 27.800781 32.699219 C 27.800781 30.378906 29.679688 28.5 32 28.5 C 34.320312 28.5 36.199219 30.378906 36.199219 32.699219 Z M 36.199219 32.699219 "/>
<path style=" stroke:none;fill-rule:nonzero;fill:rgb(41.960785%,20.392157%,85.882354%);fill-opacity:1;" d="M 32 37.601562 C 29.296875 37.601562 27.101562 35.402344 27.101562 32.699219 C 27.101562 30 29.296875 27.800781 32 27.800781 C 34.703125 27.800781 36.898438 30 36.898438 32.699219 C 36.898438 35.402344 34.703125 37.601562 32 37.601562 Z M 32 29.199219 C 30.070312 29.199219 28.5 30.769531 28.5 32.699219 C 28.5 34.628906 30.070312 36.199219 32 36.199219 C 33.929688 36.199219 35.5 34.628906 35.5 32.699219 C 35.5 30.769531 33.929688 29.199219 32 29.199219 Z M 32 29.199219 "/>
<path style=" stroke:none;fill-rule:nonzero;fill:rgb(41.960785%,20.392157%,85.882354%);fill-opacity:1;" d="M 32 41.800781 C 20.222656 41.800781 11 37.804688 11 32.699219 C 11 27.597656 20.222656 23.601562 32 23.601562 C 43.777344 23.601562 53 27.597656 53 32.699219 C 53 37.804688 43.777344 41.800781 32 41.800781 Z M 32 25 C 21.375 25 12.398438 28.527344 12.398438 32.699219 C 12.398438 36.875 21.375 40.398438 32 40.398438 C 42.625 40.398438 51.601562 36.875 51.601562 32.699219 C 51.601562 28.527344 42.625 25 32 25 Z M 32 25 "/>
<path style=" stroke:none;fill-rule:nonzero;fill:rgb(41.960785%,20.392157%,85.882354%);fill-opacity:1;" d="M 23.820312 51.480469 C 22.964844 51.480469 22.1875 51.28125 21.5 50.886719 C 19.296875 49.613281 18.402344 46.480469 18.984375 42.070312 C 19.539062 37.867188 21.363281 32.921875 24.117188 28.148438 C 26.875 23.375 30.246094 19.324219 33.605469 16.742188 C 37.140625 14.03125 40.296875 13.242188 42.5 14.515625 C 44.703125 15.785156 45.597656 18.917969 45.015625 23.332031 C 44.460938 27.535156 42.636719 32.476562 39.882812 37.25 C 37.125 42.023438 33.753906 46.074219 30.394531 48.65625 C 27.960938 50.523438 25.710938 51.480469 23.820312 51.480469 Z M 40.179688 15.324219 C 38.613281 15.324219 36.625 16.191406 34.460938 17.855469 C 31.238281 20.328125 28 24.230469 25.332031 28.851562 C 22.664062 33.46875 20.90625 38.226562 20.371094 42.253906 C 19.875 46.011719 20.542969 48.714844 22.199219 49.671875 C 23.855469 50.632812 26.53125 49.855469 29.539062 47.546875 C 32.761719 45.074219 36 41.167969 38.667969 36.550781 C 41.335938 31.929688 43.09375 27.171875 43.628906 23.148438 C 44.125 19.386719 43.457031 16.683594 41.800781 15.726562 C 41.335938 15.457031 40.789062 15.324219 40.179688 15.324219 Z M 40.179688 15.324219 "/>
<path style=" stroke:none;fill-rule:nonzero;fill:rgb(41.960785%,20.392157%,85.882354%);fill-opacity:1;" d="M 40.179688 51.480469 C 38.292969 51.480469 36.039062 50.523438 33.605469 48.65625 C 30.246094 46.074219 26.875 42.023438 24.117188 37.25 C 21.363281 32.476562 19.539062 27.535156 18.984375 23.332031 C 18.402344 18.917969 19.296875 15.785156 21.5 14.515625 C 23.703125 13.242188 26.863281 14.035156 30.394531 16.746094 C 33.753906 19.324219 37.125 23.378906 39.882812 28.152344 C 42.636719 32.925781 44.460938 37.867188 45.015625 42.070312 C 45.597656 46.480469 44.703125 49.613281 42.5 50.886719 C 41.8125 51.28125 41.03125 51.480469 40.179688 51.480469 Z M 23.820312 15.324219 C 23.210938 15.324219 22.664062 15.457031 22.199219 15.726562 C 20.542969 16.683594 19.875 19.386719 20.371094 23.148438 C 20.90625 27.171875 22.664062 31.933594 25.332031 36.550781 C 28 41.167969 31.238281 45.074219 34.460938 47.546875 C 37.46875 49.855469 40.144531 50.628906 41.800781 49.671875 C 43.457031 48.714844 44.125 46.011719 43.628906 42.253906 C 43.09375 38.226562 41.335938 33.46875 38.667969 28.851562 C 36 24.230469 32.761719 20.328125 29.539062 17.855469 C 27.378906 16.191406 25.386719 15.324219 23.820312 15.324219 Z M 23.820312 15.324219 "/>
<path style=" stroke:none;fill-rule:nonzero;fill:rgb(41.960785%,20.392157%,85.882354%);fill-opacity:1;" d="M 16.925781 42.480469 C 16.894531 42.480469 16.863281 42.476562 16.832031 42.472656 L 15.445312 42.289062 C 15.058594 42.238281 14.789062 41.886719 14.84375 41.503906 C 14.894531 41.121094 15.242188 40.851562 15.628906 40.902344 L 17.015625 41.085938 C 17.398438 41.136719 17.667969 41.488281 17.617188 41.871094 C 17.570312 42.222656 17.269531 42.480469 16.925781 42.480469 Z M 16.925781 42.480469 "/>
<path style=" stroke:none;fill-rule:nonzero;fill:rgb(41.960785%,20.392157%,85.882354%);fill-opacity:1;" d="M 15.335938 45.917969 C 14.960938 45.917969 14.648438 45.621094 14.636719 45.242188 C 14.625 44.855469 14.925781 44.53125 15.3125 44.519531 L 16.710938 44.472656 C 17.097656 44.449219 17.421875 44.761719 17.433594 45.148438 C 17.449219 45.535156 17.144531 45.859375 16.757812 45.871094 L 15.359375 45.917969 C 15.351562 45.917969 15.34375 45.917969 15.335938 45.917969 Z M 15.335938 45.917969 "/>
<path style=" stroke:none;fill-rule:nonzero;fill:rgb(41.960785%,20.392157%,85.882354%);fill-opacity:1;" d="M 15.90625 49.566406 C 15.605469 49.566406 15.328125 49.371094 15.238281 49.070312 C 15.125 48.699219 15.332031 48.308594 15.703125 48.195312 L 17.039062 47.785156 C 17.410156 47.671875 17.800781 47.882812 17.914062 48.25 C 18.027344 48.621094 17.820312 49.011719 17.449219 49.125 L 16.109375 49.535156 C 16.042969 49.554688 15.972656 49.566406 15.90625 49.566406 Z M 15.90625 49.566406 "/>
<path style=" stroke:none;fill-rule:nonzero;fill:rgb(41.960785%,20.392157%,85.882354%);fill-opacity:1;" d="M 17.6875 52.894531 C 17.488281 52.894531 17.292969 52.8125 17.15625 52.652344 C 16.902344 52.359375 16.9375 51.917969 17.230469 51.664062 L 18.292969 50.753906 C 18.585938 50.503906 19.027344 50.535156 19.28125 50.828125 C 19.53125 51.121094 19.496094 51.5625 19.203125 51.816406 L 18.140625 52.726562 C 18.011719 52.839844 17.847656 52.894531 17.6875 52.894531 Z M 17.6875 52.894531 "/>
<path style=" stroke:none;fill-rule:nonzero;fill:rgb(41.960785%,20.392157%,85.882354%);fill-opacity:1;" d="M 48.640625 22.703125 C 48.625 22.703125 48.613281 22.703125 48.597656 22.703125 L 47.203125 22.621094 C 46.816406 22.597656 46.519531 22.269531 46.542969 21.882812 C 46.566406 21.496094 46.898438 21.203125 47.28125 21.222656 L 48.679688 21.304688 C 49.066406 21.324219 49.359375 21.65625 49.335938 22.042969 C 49.316406 22.414062 49.007812 22.703125 48.640625 22.703125 Z M 48.640625 22.703125 "/>
<path style=" stroke:none;fill-rule:nonzero;fill:rgb(41.960785%,20.392157%,85.882354%);fill-opacity:1;" d="M 47.113281 19.257812 C 46.773438 19.257812 46.472656 19.007812 46.421875 18.660156 C 46.363281 18.28125 46.628906 17.921875 47.011719 17.863281 L 48.394531 17.65625 C 48.777344 17.605469 49.132812 17.863281 49.191406 18.246094 C 49.25 18.628906 48.984375 18.984375 48.601562 19.042969 L 47.21875 19.25 C 47.183594 19.253906 47.148438 19.257812 47.113281 19.257812 Z M 47.113281 19.257812 "/>
<path style=" stroke:none;fill-rule:nonzero;fill:rgb(41.960785%,20.392157%,85.882354%);fill-opacity:1;" d="M 46.152344 16.136719 C 45.898438 16.136719 45.65625 16 45.53125 15.761719 C 45.351562 15.417969 45.484375 14.996094 45.824219 14.816406 L 47.066406 14.164062 C 47.40625 13.984375 47.828125 14.117188 48.007812 14.460938 C 48.191406 14.800781 48.054688 15.226562 47.714844 15.40625 L 46.472656 16.054688 C 46.371094 16.109375 46.257812 16.136719 46.152344 16.136719 Z M 46.152344 16.136719 "/>
<path style=" stroke:none;fill-rule:nonzero;fill:rgb(41.960785%,20.392157%,85.882354%);fill-opacity:1;" d="M 44.085938 13.742188 C 43.945312 13.742188 43.804688 13.703125 43.679688 13.613281 C 43.367188 13.390625 43.292969 12.953125 43.515625 12.636719 L 44.328125 11.496094 C 44.550781 11.179688 44.988281 11.105469 45.304688 11.332031 C 45.617188 11.554688 45.691406 11.992188 45.46875 12.308594 L 44.65625 13.449219 C 44.519531 13.640625 44.304688 13.742188 44.085938 13.742188 Z M 44.085938 13.742188 "/>
<path style=" stroke:none;fill-rule:nonzero;fill:rgb(48.627451%,15.294118%,64.705884%);fill-opacity:1;" d="M 19.105469 62.03125 L 16.535156 57.234375 L 13.75 57.234375 L 13.75 62.03125 L 12.179688 62.03125 L 12.179688 50.179688 L 16.101562 50.179688 C 17.4375 50.179688 18.464844 50.480469 19.183594 51.089844 C 19.902344 51.699219 20.261719 52.582031 20.261719 53.746094 C 20.261719 54.480469 20.0625 55.125 19.660156 55.671875 C 19.265625 56.21875 18.707031 56.628906 17.996094 56.902344 L 20.78125 61.933594 L 20.78125 62.03125 Z M 13.75 51.464844 L 13.75 55.957031 L 16.148438 55.957031 C 16.925781 55.957031 17.542969 55.757812 18.003906 55.355469 C 18.460938 54.953125 18.691406 54.417969 18.691406 53.746094 C 18.691406 53.011719 18.472656 52.449219 18.035156 52.058594 C 17.597656 51.667969 16.96875 51.46875 16.140625 51.464844 Z M 25.867188 62.195312 C 24.675781 62.195312 23.703125 61.800781 22.957031 61.015625 C 22.207031 60.230469 21.832031 59.183594 21.832031 57.871094 L 21.832031 57.59375 C 21.832031 56.71875 21.996094 55.941406 22.332031 55.253906 C 22.667969 54.566406 23.132812 54.03125 23.734375 53.644531 C 24.332031 53.253906 24.980469 53.058594 25.679688 53.058594 C 26.828125 53.058594 27.714844 53.4375 28.351562 54.191406 C 28.984375 54.945312 29.304688 56.023438 29.304688 57.429688 L 29.304688 58.058594 L 23.335938 58.058594 C 23.359375 58.925781 23.613281 59.628906 24.101562 60.160156 C 24.585938 60.695312 25.203125 60.964844 25.953125 60.964844 C 26.484375 60.964844 26.933594 60.855469 27.300781 60.640625 C 27.671875 60.421875 27.992188 60.132812 28.269531 59.773438 L 29.1875 60.488281 C 28.453125 61.625 27.34375 62.195312 25.867188 62.195312 Z M 25.679688 54.296875 C 25.074219 54.296875 24.5625 54.519531 24.152344 54.960938 C 23.738281 55.402344 23.484375 56.023438 23.386719 56.820312 L 27.796875 56.820312 L 27.796875 56.707031 C 27.753906 55.941406 27.546875 55.347656 27.179688 54.925781 C 26.808594 54.507812 26.3125 54.296875 25.679688 54.296875 Z M 38.0625 62.03125 L 36.480469 62.03125 C 36.394531 61.855469 36.324219 61.546875 36.269531 61.101562 C 35.570312 61.828125 34.734375 62.195312 33.765625 62.195312 C 32.898438 62.195312 32.183594 61.949219 31.628906 61.457031 C 31.070312 60.964844 30.792969 60.34375 30.792969 59.589844 C 30.792969 58.671875 31.140625 57.957031 31.839844 57.449219 C 32.535156 56.945312 33.515625 56.691406 34.78125 56.691406 L 36.246094 56.691406 L 36.246094 55.996094 C 36.246094 55.472656 36.089844 55.050781 35.773438 54.742188 C 35.460938 54.429688 34.996094 54.273438 34.382812 54.273438 C 33.847656 54.273438 33.394531 54.410156 33.03125 54.679688 C 32.667969 54.949219 32.488281 55.277344 32.488281 55.664062 L 30.972656 55.664062 C 30.972656 55.222656 31.128906 54.800781 31.441406 54.390625 C 31.753906 53.980469 32.175781 53.65625 32.710938 53.417969 C 33.246094 53.179688 33.832031 53.058594 34.472656 53.058594 C 35.488281 53.058594 36.28125 53.3125 36.855469 53.820312 C 37.433594 54.328125 37.730469 55.027344 37.753906 55.917969 L 37.753906 59.96875 C 37.753906 60.777344 37.855469 61.421875 38.0625 61.898438 Z M 33.984375 60.882812 C 34.457031 60.882812 34.90625 60.757812 35.328125 60.515625 C 35.75 60.269531 36.058594 59.953125 36.246094 59.5625 L 36.246094 57.753906 L 35.066406 57.753906 C 33.222656 57.753906 32.300781 58.296875 32.300781 59.375 C 32.300781 59.847656 32.457031 60.214844 32.769531 60.480469 C 33.085938 60.75 33.492188 60.882812 33.984375 60.882812 Z M 43.644531 60.964844 C 44.183594 60.964844 44.652344 60.800781 45.054688 60.472656 C 45.457031 60.148438 45.675781 59.742188 45.722656 59.253906 L 47.144531 59.253906 C 47.117188 59.757812 46.945312 60.238281 46.625 60.695312 C 46.304688 61.152344 45.878906 61.515625 45.34375 61.785156 C 44.808594 62.058594 44.242188 62.195312 43.644531 62.195312 C 42.445312 62.195312 41.492188 61.792969 40.785156 60.992188 C 40.078125 60.191406 39.722656 59.097656 39.722656 57.707031 L 39.722656 57.457031 C 39.722656 56.597656 39.878906 55.835938 40.195312 55.167969 C 40.511719 54.5 40.960938 53.980469 41.550781 53.613281 C 42.140625 53.242188 42.835938 53.058594 43.636719 53.058594 C 44.625 53.058594 45.445312 53.355469 46.097656 53.949219 C 46.753906 54.539062 47.101562 55.308594 47.144531 56.25 L 45.722656 56.25 C 45.675781 55.679688 45.460938 55.210938 45.074219 54.847656 C 44.6875 54.480469 44.207031 54.296875 43.636719 54.296875 C 42.875 54.296875 42.28125 54.570312 41.859375 55.121094 C 41.4375 55.675781 41.226562 56.472656 41.226562 57.511719 L 41.226562 57.796875 C 41.226562 58.8125 41.4375 59.59375 41.855469 60.140625 C 42.273438 60.691406 42.867188 60.964844 43.644531 60.964844 Z M 49.375 51.089844 L 50.878906 51.089844 L 50.878906 53.222656 L 52.527344 53.222656 L 52.527344 54.386719 L 50.878906 54.386719 L 50.878906 59.847656 C 50.878906 60.203125 50.953125 60.464844 51.101562 60.640625 C 51.246094 60.820312 51.496094 60.90625 51.851562 60.90625 C 52.023438 60.90625 52.261719 60.875 52.566406 60.808594 L 52.566406 62.03125 C 52.171875 62.140625 51.785156 62.195312 51.410156 62.195312 C 50.738281 62.195312 50.230469 61.988281 49.886719 61.582031 C 49.546875 61.175781 49.375 60.597656 49.375 59.847656 L 49.375 54.386719 L 47.773438 54.386719 L 47.773438 53.222656 L 49.375 53.222656 Z M 49.375 51.089844 "/>
</g>
</svg>
