<?xml version="1.0" encoding="UTF-8"?>
<svg xmlns="http://www.w3.org/2000/svg" xmlns:xlink="http://www.w3.org/1999/xlink" width="64pt" height="64pt" viewBox="0 0 64 64" version="1.1">
<g id="surface4687685">
<path style=" stroke:none;fill-rule:nonzero;fill:rgb(92.941177%,47.058824%,60.000002%);fill-opacity:1;" d="M 36.199219 32.699219 C 36.199219 35.019531 34.320312 36.898438 32 36.898438 C 29.679688 36.898438 27.800781 35.019531 27.800781 32.699219 C 27.800781 30.378906 29.679688 28.5 32 28.5 C 34.320312 28.5 36.199219 30.378906 36.199219 32.699219 Z M 36.199219 32.699219 "/>
<path style=" stroke:none;fill-rule:nonzero;fill:rgb(43.529412%,19.607843%,56.470591%);fill-opacity:1;" d="M 32 37.601562 C 29.296875 37.601562 27.101562 35.402344 27.101562 32.699219 C 27.101562 30 29.296875 27.800781 32 27.800781 C 34.703125 27.800781 36.898438 30 36.898438 32.699219 C 36.898438 35.402344 34.703125 37.601562 32 37.601562 Z M 32 29.199219 C 30.070312 29.199219 28.5 30.769531 28.5 32.699219 C 28.5 34.628906 30.070312 36.199219 32 36.199219 C 33.929688 36.199219 35.5 34.628906 35.5 32.699219 C 35.5 30.769531 33.929688 29.199219 32 29.199219 Z M 32 29.199219 "/>
<path style=" stroke:none;fill-rule:nonzero;fill:rgb(43.529412%,19.607843%,56.470591%);fill-opacity:1;" d="M 32 41.800781 C 20.222656 41.800781 11 37.804688 11 32.699219 C 11 27.597656 20.222656 23.601562 32 23.601562 C 43.777344 23.601562 53 27.597656 53 32.699219 C 53 37.804688 43.777344 41.800781 32 41.800781 Z M 32 25 C 21.375 25 12.398438 28.527344 12.398438 32.699219 C 12.398438 36.875 21.375 40.398438 32 40.398438 C 42.625 40.398438 51.601562 36.875 51.601562 32.699219 C 51.601562 28.527344 42.625 25 32 25 Z M 32 25 "/>
<path style=" stroke:none;fill-rule:nonzero;fill:rgb(43.529412%,19.607843%,56.470591%);fill-opacity:1;" d="M 23.820312 51.480469 C 22.964844 51.480469 22.1875 51.28125 21.5 50.886719 C 19.296875 49.613281 18.402344 46.480469 18.984375 42.070312 C 19.539062 37.867188 21.363281 32.921875 24.117188 28.148438 C 26.875 23.375 30.246094 19.324219 33.605469 16.742188 C 37.140625 14.03125 40.296875 13.242188 42.5 14.515625 C 44.703125 15.785156 45.597656 18.917969 45.015625 23.332031 C 44.460938 27.535156 42.636719 32.476562 39.882812 37.25 C 37.125 42.023438 33.753906 46.074219 30.394531 48.65625 C 27.960938 50.523438 25.710938 51.480469 23.820312 51.480469 Z M 40.179688 15.324219 C 38.613281 15.324219 36.625 16.191406 34.460938 17.855469 C 31.238281 20.328125 28 24.230469 25.332031 28.851562 C 22.664062 33.46875 20.90625 38.226562 20.371094 42.253906 C 19.875 46.011719 20.542969 48.714844 22.199219 49.671875 C 23.855469 50.632812 26.53125 49.855469 29.539062 47.546875 C 32.761719 45.074219 36 41.167969 38.667969 36.550781 C 41.335938 31.929688 43.09375 27.171875 43.628906 23.148438 C 44.125 19.386719 43.457031 16.683594 41.800781 15.726562 C 41.335938 15.457031 40.789062 15.324219 40.179688 15.324219 Z M 40.179688 15.324219 "/>
<path style=" stroke:none;fill-rule:nonzero;fill:rgb(43.529412%,19.607843%,56.470591%);fill-opacity:1;" d="M 40.179688 51.480469 C 38.292969 51.480469 36.039062 50.523438 33.605469 48.65625 C 30.246094 46.074219 26.875 42.023438 24.117188 37.25 C 21.363281 32.476562 19.539062 27.535156 18.984375 23.332031 C 18.402344 18.917969 19.296875 15.785156 21.5 14.515625 C 23.703125 13.242188 26.863281 14.035156 30.394531 16.746094 C 33.753906 19.324219 37.125 23.378906 39.882812 28.152344 C 42.636719 32.925781 44.460938 37.867188 45.015625 42.070312 C 45.597656 46.480469 44.703125 49.613281 42.5 50.886719 C 41.8125 51.28125 41.03125 51.480469 40.179688 51.480469 Z M 23.820312 15.324219 C 23.210938 15.324219 22.664062 15.457031 22.199219 15.726562 C 20.542969 16.683594 19.875 19.386719 20.371094 23.148438 C 20.90625 27.171875 22.664062 31.933594 25.332031 36.550781 C 28 41.167969 31.238281 45.074219 34.460938 47.546875 C 37.46875 49.855469 40.144531 50.628906 41.800781 49.671875 C 43.457031 48.714844 44.125 46.011719 43.628906 42.253906 C 43.09375 38.226562 41.335938 33.46875 38.667969 28.851562 C 36 24.230469 32.761719 20.328125 29.539062 17.855469 C 27.378906 16.191406 25.386719 15.324219 23.820312 15.324219 Z M 23.820312 15.324219 "/>
<path style=" stroke:none;fill-rule:nonzero;fill:rgb(43.529412%,19.607843%,56.470591%);fill-opacity:1;" d="M 16.925781 42.480469 C 16.894531 42.480469 16.863281 42.476562 16.832031 42.472656 L 15.445312 42.289062 C 15.058594 42.238281 14.789062 41.886719 14.84375 41.503906 C 14.894531 41.121094 15.242188 40.851562 15.628906 40.902344 L 17.015625 41.085938 C 17.398438 41.136719 17.667969 41.488281 17.617188 41.871094 C 17.570312 42.222656 17.269531 42.480469 16.925781 42.480469 Z M 16.925781 42.480469 "/>
<path style=" stroke:none;fill-rule:nonzero;fill:rgb(43.529412%,19.607843%,56.470591%);fill-opacity:1;" d="M 15.335938 45.917969 C 14.960938 45.917969 14.648438 45.621094 14.636719 45.242188 C 14.625 44.855469 14.925781 44.53125 15.3125 44.519531 L 16.710938 44.472656 C 17.097656 44.449219 17.421875 44.761719 17.433594 45.148438 C 17.449219 45.535156 17.144531 45.859375 16.757812 45.871094 L 15.359375 45.917969 C 15.351562 45.917969 15.34375 45.917969 15.335938 45.917969 Z M 15.335938 45.917969 "/>
<path style=" stroke:none;fill-rule:nonzero;fill:rgb(43.529412%,19.607843%,56.470591%);fill-opacity:1;" d="M 15.90625 49.566406 C 15.605469 49.566406 15.328125 49.371094 15.238281 49.070312 C 15.125 48.699219 15.332031 48.308594 15.703125 48.195312 L 17.039062 47.785156 C 17.410156 47.671875 17.800781 47.882812 17.914062 48.25 C 18.027344 48.621094 17.820312 49.011719 17.449219 49.125 L 16.109375 49.535156 C 16.042969 49.554688 15.972656 49.566406 15.90625 49.566406 Z M 15.90625 49.566406 "/>
<path style=" stroke:none;fill-rule:nonzero;fill:rgb(43.529412%,19.607843%,56.470591%);fill-opacity:1;" d="M 17.6875 52.894531 C 17.488281 52.894531 17.292969 52.8125 17.15625 52.652344 C 16.902344 52.359375 16.9375 51.917969 17.230469 51.664062 L 18.292969 50.753906 C 18.585938 50.503906 19.027344 50.535156 19.28125 50.828125 C 19.53125 51.121094 19.496094 51.5625 19.203125 51.816406 L 18.140625 52.726562 C 18.011719 52.839844 17.847656 52.894531 17.6875 52.894531 Z M 17.6875 52.894531 "/>
<path style=" stroke:none;fill-rule:nonzero;fill:rgb(43.529412%,19.607843%,56.470591%);fill-opacity:1;" d="M 48.640625 22.703125 C 48.625 22.703125 48.613281 22.703125 48.597656 22.703125 L 47.203125 22.621094 C 46.816406 22.597656 46.519531 22.269531 46.542969 21.882812 C 46.566406 21.496094 46.898438 21.203125 47.28125 21.222656 L 48.679688 21.304688 C 49.066406 21.324219 49.359375 21.65625 49.335938 22.042969 C 49.316406 22.414062 49.007812 22.703125 48.640625 22.703125 Z M 48.640625 22.703125 "/>
<path style=" stroke:none;fill-rule:nonzero;fill:rgb(43.529412%,19.607843%,56.470591%);fill-opacity:1;" d="M 47.113281 19.257812 C 46.773438 19.257812 46.472656 19.007812 46.421875 18.660156 C 46.363281 18.28125 46.628906 17.921875 47.011719 17.863281 L 48.394531 17.65625 C 48.777344 17.605469 49.132812 17.863281 49.191406 18.246094 C 49.25 18.628906 48.984375 18.984375 48.601562 19.042969 L 47.21875 19.25 C 47.183594 19.253906 47.148438 19.257812 47.113281 19.257812 Z M 47.113281 19.257812 "/>
<path style=" stroke:none;fill-rule:nonzero;fill:rgb(43.529412%,19.607843%,56.470591%);fill-opacity:1;" d="M 46.152344 16.136719 C 45.898438 16.136719 45.65625 16 45.53125 15.761719 C 45.351562 15.417969 45.484375 14.996094 45.824219 14.816406 L 47.066406 14.164062 C 47.40625 13.984375 47.828125 14.117188 48.007812 14.460938 C 48.191406 14.800781 48.054688 15.226562 47.714844 15.40625 L 46.472656 16.054688 C 46.371094 16.109375 46.257812 16.136719 46.152344 16.136719 Z M 46.152344 16.136719 "/>
<path style=" stroke:none;fill-rule:nonzero;fill:rgb(43.529412%,19.607843%,56.470591%);fill-opacity:1;" d="M 44.085938 13.742188 C 43.945312 13.742188 43.804688 13.703125 43.679688 13.613281 C 43.367188 13.390625 43.292969 12.953125 43.515625 12.636719 L 44.328125 11.496094 C 44.550781 11.179688 44.988281 11.105469 45.304688 11.332031 C 45.617188 11.554688 45.691406 11.992188 45.46875 12.308594 L 44.65625 13.449219 C 44.519531 13.640625 44.304688 13.742188 44.085938 13.742188 Z M 44.085938 13.742188 "/>
<path style=" stroke:none;fill-rule:nonzero;fill:rgb(32.156864%,12.54902%,53.725493%);fill-opacity:1;" d="M 14.617188 61.464844 L 12.488281 57.496094 L 10.183594 57.496094 L 10.183594 61.464844 L 8.882812 61.464844 L 8.882812 51.652344 L 12.128906 51.652344 C 13.238281 51.652344 14.085938 51.902344 14.683594 52.40625 C 15.277344 52.910156 15.578125 53.644531 15.578125 54.605469 C 15.578125 55.214844 15.410156 55.746094 15.078125 56.203125 C 14.75 56.65625 14.289062 56.992188 13.699219 57.21875 L 16.007812 61.382812 L 16.007812 61.464844 Z M 10.183594 52.714844 L 10.183594 56.4375 L 12.171875 56.4375 C 12.8125 56.4375 13.324219 56.269531 13.703125 55.9375 C 14.082031 55.605469 14.273438 55.160156 14.273438 54.605469 C 14.273438 53.996094 14.09375 53.53125 13.730469 53.207031 C 13.371094 52.886719 12.847656 52.722656 12.164062 52.714844 Z M 20.21875 61.601562 C 19.230469 61.601562 18.425781 61.277344 17.804688 60.625 C 17.1875 59.976562 16.875 59.109375 16.875 58.023438 L 16.875 57.792969 C 16.875 57.070312 17.015625 56.421875 17.289062 55.855469 C 17.566406 55.285156 17.953125 54.839844 18.449219 54.519531 C 18.945312 54.199219 19.484375 54.035156 20.0625 54.035156 C 21.011719 54.035156 21.75 54.347656 22.273438 54.972656 C 22.800781 55.601562 23.066406 56.492188 23.066406 57.65625 L 23.066406 58.175781 L 18.125 58.175781 C 18.140625 58.894531 18.351562 59.476562 18.753906 59.917969 C 19.15625 60.359375 19.664062 60.582031 20.285156 60.582031 C 20.726562 60.582031 21.101562 60.492188 21.40625 60.3125 C 21.710938 60.132812 21.976562 59.894531 22.207031 59.597656 L 22.96875 60.191406 C 22.359375 61.132812 21.441406 61.601562 20.21875 61.601562 Z M 20.0625 55.0625 C 19.558594 55.0625 19.136719 55.246094 18.796875 55.609375 C 18.457031 55.976562 18.246094 56.492188 18.164062 57.152344 L 21.816406 57.152344 L 21.816406 57.058594 C 21.78125 56.425781 21.609375 55.933594 21.304688 55.585938 C 21 55.238281 20.585938 55.0625 20.0625 55.0625 Z M 30.316406 61.464844 L 29.007812 61.464844 C 28.9375 61.320312 28.878906 61.066406 28.832031 60.695312 C 28.253906 61.300781 27.5625 61.601562 26.757812 61.601562 C 26.039062 61.601562 25.449219 61.398438 24.988281 60.992188 C 24.527344 60.582031 24.296875 60.066406 24.296875 59.445312 C 24.296875 58.683594 24.585938 58.09375 25.164062 57.671875 C 25.742188 57.253906 26.550781 57.042969 27.597656 57.042969 L 28.8125 57.042969 L 28.8125 56.46875 C 28.8125 56.035156 28.683594 55.6875 28.421875 55.429688 C 28.160156 55.171875 27.777344 55.042969 27.269531 55.042969 C 26.824219 55.042969 26.453125 55.152344 26.152344 55.378906 C 25.851562 55.605469 25.699219 55.875 25.699219 56.195312 L 24.445312 56.195312 C 24.445312 55.832031 24.574219 55.480469 24.832031 55.136719 C 25.09375 54.800781 25.441406 54.53125 25.886719 54.332031 C 26.328125 54.136719 26.8125 54.035156 27.34375 54.035156 C 28.183594 54.035156 28.84375 54.246094 29.316406 54.667969 C 29.796875 55.085938 30.042969 55.664062 30.0625 56.402344 L 30.0625 59.757812 C 30.0625 60.429688 30.144531 60.960938 30.316406 61.359375 Z M 26.941406 60.515625 C 27.332031 60.515625 27.703125 60.414062 28.050781 60.210938 C 28.402344 60.007812 28.65625 59.746094 28.8125 59.421875 L 28.8125 57.925781 L 27.835938 57.925781 C 26.308594 57.925781 25.542969 58.371094 25.542969 59.265625 C 25.542969 59.65625 25.675781 59.964844 25.933594 60.183594 C 26.195312 60.40625 26.53125 60.515625 26.941406 60.515625 Z M 34.941406 60.582031 C 35.386719 60.582031 35.773438 60.449219 36.105469 60.179688 C 36.4375 59.90625 36.625 59.570312 36.660156 59.167969 L 37.839844 59.167969 C 37.816406 59.585938 37.671875 59.980469 37.410156 60.359375 C 37.144531 60.738281 36.789062 61.039062 36.34375 61.261719 C 35.902344 61.488281 35.433594 61.601562 34.941406 61.601562 C 33.949219 61.601562 33.160156 61.269531 32.570312 60.605469 C 31.984375 59.941406 31.691406 59.035156 31.691406 57.886719 L 31.691406 57.679688 C 31.691406 56.96875 31.820312 56.335938 32.082031 55.78125 C 32.34375 55.230469 32.714844 54.800781 33.203125 54.496094 C 33.691406 54.191406 34.269531 54.035156 34.933594 54.035156 C 35.75 54.035156 36.429688 54.28125 36.972656 54.769531 C 37.515625 55.261719 37.804688 55.898438 37.839844 56.679688 L 36.660156 56.679688 C 36.625 56.207031 36.445312 55.820312 36.125 55.515625 C 35.804688 55.214844 35.40625 55.0625 34.933594 55.0625 C 34.300781 55.0625 33.808594 55.289062 33.460938 55.746094 C 33.113281 56.203125 32.9375 56.863281 32.9375 57.726562 L 32.9375 57.960938 C 32.9375 58.800781 33.113281 59.449219 33.457031 59.902344 C 33.800781 60.355469 34.296875 60.582031 34.941406 60.582031 Z M 39.683594 52.40625 L 40.933594 52.40625 L 40.933594 54.171875 L 42.292969 54.171875 L 42.292969 55.136719 L 40.933594 55.136719 L 40.933594 59.65625 C 40.933594 59.949219 40.992188 60.171875 41.113281 60.316406 C 41.238281 60.460938 41.441406 60.535156 41.734375 60.535156 C 41.878906 60.535156 42.078125 60.507812 42.328125 60.453125 L 42.328125 61.464844 C 42 61.554688 41.679688 61.601562 41.371094 61.601562 C 40.8125 61.601562 40.394531 61.433594 40.109375 61.09375 C 39.828125 60.757812 39.683594 60.28125 39.683594 59.65625 L 39.683594 55.136719 L 38.359375 55.136719 L 38.359375 54.171875 L 39.683594 54.171875 Z M 48.058594 58.621094 L 48.058594 51.652344 L 49.359375 51.652344 L 49.359375 58.601562 C 49.359375 59.539062 49.078125 60.273438 48.511719 60.804688 C 47.949219 61.335938 47.195312 61.601562 46.257812 61.601562 C 45.28125 61.601562 44.523438 61.351562 43.980469 60.851562 C 43.4375 60.351562 43.164062 59.652344 43.164062 58.757812 L 44.460938 58.757812 C 44.460938 59.316406 44.613281 59.753906 44.921875 60.070312 C 45.226562 60.382812 45.671875 60.539062 46.257812 60.539062 C 46.792969 60.539062 47.226562 60.371094 47.554688 60.035156 C 47.886719 59.699219 48.054688 59.226562 48.058594 58.621094 Z M 54.453125 57.089844 C 53.34375 56.773438 52.535156 56.378906 52.03125 55.914062 C 51.527344 55.449219 51.273438 54.875 51.273438 54.191406 C 51.273438 53.421875 51.582031 52.78125 52.199219 52.273438 C 52.816406 51.769531 53.621094 51.515625 54.609375 51.515625 C 55.285156 51.515625 55.882812 51.644531 56.410156 51.90625 C 56.941406 52.167969 57.347656 52.527344 57.640625 52.984375 C 57.929688 53.441406 58.074219 53.945312 58.074219 54.488281 L 56.773438 54.488281 C 56.773438 53.894531 56.585938 53.429688 56.207031 53.089844 C 55.828125 52.75 55.296875 52.582031 54.609375 52.582031 C 53.972656 52.582031 53.476562 52.722656 53.117188 53.003906 C 52.757812 53.285156 52.582031 53.675781 52.582031 54.171875 C 52.582031 54.570312 52.75 54.910156 53.089844 55.183594 C 53.429688 55.464844 54.007812 55.71875 54.824219 55.945312 C 55.636719 56.175781 56.273438 56.429688 56.734375 56.703125 C 57.195312 56.980469 57.539062 57.300781 57.761719 57.671875 C 57.984375 58.039062 58.09375 58.472656 58.09375 58.96875 C 58.09375 59.765625 57.785156 60.40625 57.164062 60.882812 C 56.542969 61.359375 55.714844 61.601562 54.675781 61.601562 C 54.003906 61.601562 53.375 61.472656 52.789062 61.210938 C 52.207031 60.953125 51.753906 60.601562 51.4375 60.148438 C 51.121094 59.703125 50.964844 59.191406 50.964844 58.621094 L 52.261719 58.621094 C 52.261719 59.214844 52.480469 59.683594 52.921875 60.023438 C 53.359375 60.367188 53.945312 60.539062 54.675781 60.539062 C 55.359375 60.539062 55.882812 60.402344 56.246094 60.125 C 56.609375 59.847656 56.792969 59.464844 56.792969 58.984375 C 56.792969 58.503906 56.625 58.132812 56.285156 57.867188 C 55.949219 57.605469 55.339844 57.347656 54.453125 57.089844 Z M 54.453125 57.089844 "/>
</g>
</svg>
