<?xml version="1.0" encoding="UTF-8"?>
<svg xmlns="http://www.w3.org/2000/svg" xmlns:xlink="http://www.w3.org/1999/xlink" width="64pt" height="64pt" viewBox="0 0 64 64" version="1.1">
<g id="surface4606319">
<path style=" stroke:none;fill-rule:nonzero;fill:rgb(92.941177%,47.058824%,60.000002%);fill-opacity:1;" d="M 36.199219 32.699219 C 36.199219 35.019531 34.320312 36.898438 32 36.898438 C 29.679688 36.898438 27.800781 35.019531 27.800781 32.699219 C 27.800781 30.378906 29.679688 28.5 32 28.5 C 34.320312 28.5 36.199219 30.378906 36.199219 32.699219 Z M 36.199219 32.699219 "/>
<path style=" stroke:none;fill-rule:nonzero;fill:rgb(55.29412%,42.352942%,62.352943%);fill-opacity:1;" d="M 32 37.601562 C 29.296875 37.601562 27.101562 35.402344 27.101562 32.699219 C 27.101562 30 29.296875 27.800781 32 27.800781 C 34.703125 27.800781 36.898438 30 36.898438 32.699219 C 36.898438 35.402344 34.703125 37.601562 32 37.601562 Z M 32 29.199219 C 30.070312 29.199219 28.5 30.769531 28.5 32.699219 C 28.5 34.628906 30.070312 36.199219 32 36.199219 C 33.929688 36.199219 35.5 34.628906 35.5 32.699219 C 35.5 30.769531 33.929688 29.199219 32 29.199219 Z M 32 29.199219 "/>
<path style=" stroke:none;fill-rule:nonzero;fill:rgb(55.29412%,42.352942%,62.352943%);fill-opacity:1;" d="M 32 41.800781 C 20.222656 41.800781 11 37.804688 11 32.699219 C 11 27.597656 20.222656 23.601562 32 23.601562 C 43.777344 23.601562 53 27.597656 53 32.699219 C 53 37.804688 43.777344 41.800781 32 41.800781 Z M 32 25 C 21.375 25 12.398438 28.527344 12.398438 32.699219 C 12.398438 36.875 21.375 40.398438 32 40.398438 C 42.625 40.398438 51.601562 36.875 51.601562 32.699219 C 51.601562 28.527344 42.625 25 32 25 Z M 32 25 "/>
<path style=" stroke:none;fill-rule:nonzero;fill:rgb(55.29412%,42.352942%,62.352943%);fill-opacity:1;" d="M 23.820312 51.480469 C 22.964844 51.480469 22.1875 51.28125 21.5 50.886719 C 19.296875 49.613281 18.402344 46.480469 18.984375 42.070312 C 19.539062 37.867188 21.363281 32.921875 24.117188 28.148438 C 26.875 23.375 30.246094 19.324219 33.605469 16.742188 C 37.140625 14.03125 40.296875 13.242188 42.5 14.515625 C 44.703125 15.785156 45.597656 18.917969 45.015625 23.332031 C 44.460938 27.535156 42.636719 32.476562 39.882812 37.25 C 37.125 42.023438 33.753906 46.074219 30.394531 48.65625 C 27.960938 50.523438 25.710938 51.480469 23.820312 51.480469 Z M 40.179688 15.324219 C 38.613281 15.324219 36.625 16.191406 34.460938 17.855469 C 31.238281 20.328125 28 24.230469 25.332031 28.851562 C 22.664062 33.46875 20.90625 38.226562 20.371094 42.253906 C 19.875 46.011719 20.542969 48.714844 22.199219 49.671875 C 23.855469 50.632812 26.53125 49.855469 29.539062 47.546875 C 32.761719 45.074219 36 41.167969 38.667969 36.550781 C 41.335938 31.929688 43.09375 27.171875 43.628906 23.148438 C 44.125 19.386719 43.457031 16.683594 41.800781 15.726562 C 41.335938 15.457031 40.789062 15.324219 40.179688 15.324219 Z M 40.179688 15.324219 "/>
<path style=" stroke:none;fill-rule:nonzero;fill:rgb(55.29412%,42.352942%,62.352943%);fill-opacity:1;" d="M 40.179688 51.480469 C 38.292969 51.480469 36.039062 50.523438 33.605469 48.65625 C 30.246094 46.074219 26.875 42.023438 24.117188 37.25 C 21.363281 32.476562 19.539062 27.535156 18.984375 23.332031 C 18.402344 18.917969 19.296875 15.785156 21.5 14.515625 C 23.703125 13.242188 26.863281 14.035156 30.394531 16.746094 C 33.753906 19.324219 37.125 23.378906 39.882812 28.152344 C 42.636719 32.925781 44.460938 37.867188 45.015625 42.070312 C 45.597656 46.480469 44.703125 49.613281 42.5 50.886719 C 41.8125 51.28125 41.03125 51.480469 40.179688 51.480469 Z M 23.820312 15.324219 C 23.210938 15.324219 22.664062 15.457031 22.199219 15.726562 C 20.542969 16.683594 19.875 19.386719 20.371094 23.148438 C 20.90625 27.171875 22.664062 31.933594 25.332031 36.550781 C 28 41.167969 31.238281 45.074219 34.460938 47.546875 C 37.46875 49.855469 40.144531 50.628906 41.800781 49.671875 C 43.457031 48.714844 44.125 46.011719 43.628906 42.253906 C 43.09375 38.226562 41.335938 33.46875 38.667969 28.851562 C 36 24.230469 32.761719 20.328125 29.539062 17.855469 C 27.378906 16.191406 25.386719 15.324219 23.820312 15.324219 Z M 23.820312 15.324219 "/>
<path style=" stroke:none;fill-rule:nonzero;fill:rgb(55.29412%,42.352942%,62.352943%);fill-opacity:1;" d="M 16.925781 42.480469 C 16.894531 42.480469 16.863281 42.476562 16.832031 42.472656 L 15.445312 42.289062 C 15.058594 42.238281 14.789062 41.886719 14.84375 41.503906 C 14.894531 41.121094 15.242188 40.851562 15.628906 40.902344 L 17.015625 41.085938 C 17.398438 41.136719 17.667969 41.488281 17.617188 41.871094 C 17.570312 42.222656 17.269531 42.480469 16.925781 42.480469 Z M 16.925781 42.480469 "/>
<path style=" stroke:none;fill-rule:nonzero;fill:rgb(55.29412%,42.352942%,62.352943%);fill-opacity:1;" d="M 15.335938 45.917969 C 14.960938 45.917969 14.648438 45.621094 14.636719 45.242188 C 14.625 44.855469 14.925781 44.53125 15.3125 44.519531 L 16.710938 44.472656 C 17.097656 44.449219 17.421875 44.761719 17.433594 45.148438 C 17.449219 45.535156 17.144531 45.859375 16.757812 45.871094 L 15.359375 45.917969 C 15.351562 45.917969 15.34375 45.917969 15.335938 45.917969 Z M 15.335938 45.917969 "/>
<path style=" stroke:none;fill-rule:nonzero;fill:rgb(55.29412%,42.352942%,62.352943%);fill-opacity:1;" d="M 15.90625 49.566406 C 15.605469 49.566406 15.328125 49.371094 15.238281 49.070312 C 15.125 48.699219 15.332031 48.308594 15.703125 48.195312 L 17.039062 47.785156 C 17.410156 47.671875 17.800781 47.882812 17.914062 48.25 C 18.027344 48.621094 17.820312 49.011719 17.449219 49.125 L 16.109375 49.535156 C 16.042969 49.554688 15.972656 49.566406 15.90625 49.566406 Z M 15.90625 49.566406 "/>
<path style=" stroke:none;fill-rule:nonzero;fill:rgb(55.29412%,42.352942%,62.352943%);fill-opacity:1;" d="M 17.6875 52.894531 C 17.488281 52.894531 17.292969 52.8125 17.15625 52.652344 C 16.902344 52.359375 16.9375 51.917969 17.230469 51.664062 L 18.292969 50.753906 C 18.585938 50.503906 19.027344 50.535156 19.28125 50.828125 C 19.53125 51.121094 19.496094 51.5625 19.203125 51.816406 L 18.140625 52.726562 C 18.011719 52.839844 17.847656 52.894531 17.6875 52.894531 Z M 17.6875 52.894531 "/>
<path style=" stroke:none;fill-rule:nonzero;fill:rgb(55.29412%,42.352942%,62.352943%);fill-opacity:1;" d="M 48.640625 22.703125 C 48.625 22.703125 48.613281 22.703125 48.597656 22.703125 L 47.203125 22.621094 C 46.816406 22.597656 46.519531 22.269531 46.542969 21.882812 C 46.566406 21.496094 46.898438 21.203125 47.28125 21.222656 L 48.679688 21.304688 C 49.066406 21.324219 49.359375 21.65625 49.335938 22.042969 C 49.316406 22.414062 49.007812 22.703125 48.640625 22.703125 Z M 48.640625 22.703125 "/>
<path style=" stroke:none;fill-rule:nonzero;fill:rgb(55.29412%,42.352942%,62.352943%);fill-opacity:1;" d="M 47.113281 19.257812 C 46.773438 19.257812 46.472656 19.007812 46.421875 18.660156 C 46.363281 18.28125 46.628906 17.921875 47.011719 17.863281 L 48.394531 17.65625 C 48.777344 17.605469 49.132812 17.863281 49.191406 18.246094 C 49.25 18.628906 48.984375 18.984375 48.601562 19.042969 L 47.21875 19.25 C 47.183594 19.253906 47.148438 19.257812 47.113281 19.257812 Z M 47.113281 19.257812 "/>
<path style=" stroke:none;fill-rule:nonzero;fill:rgb(55.29412%,42.352942%,62.352943%);fill-opacity:1;" d="M 46.152344 16.136719 C 45.898438 16.136719 45.65625 16 45.53125 15.761719 C 45.351562 15.417969 45.484375 14.996094 45.824219 14.816406 L 47.066406 14.164062 C 47.40625 13.984375 47.828125 14.117188 48.007812 14.460938 C 48.191406 14.800781 48.054688 15.226562 47.714844 15.40625 L 46.472656 16.054688 C 46.371094 16.109375 46.257812 16.136719 46.152344 16.136719 Z M 46.152344 16.136719 "/>
<path style=" stroke:none;fill-rule:nonzero;fill:rgb(55.29412%,42.352942%,62.352943%);fill-opacity:1;" d="M 44.085938 13.742188 C 43.945312 13.742188 43.804688 13.703125 43.679688 13.613281 C 43.367188 13.390625 43.292969 12.953125 43.515625 12.636719 L 44.328125 11.496094 C 44.550781 11.179688 44.988281 11.105469 45.304688 11.332031 C 45.617188 11.554688 45.691406 11.992188 45.46875 12.308594 L 44.65625 13.449219 C 44.519531 13.640625 44.304688 13.742188 44.085938 13.742188 Z M 44.085938 13.742188 "/>
<path style=" stroke:none;fill-rule:nonzero;fill:rgb(80.000001%,80.000001%,80.000001%);fill-opacity:1;" d="M 22.007812 60.753906 L 19.996094 57.007812 L 17.824219 57.007812 L 17.824219 60.753906 L 16.597656 60.753906 L 16.597656 51.492188 L 19.660156 51.492188 C 20.703125 51.492188 21.507812 51.730469 22.066406 52.207031 C 22.628906 52.679688 22.910156 53.371094 22.910156 54.28125 C 22.910156 54.855469 22.753906 55.359375 22.441406 55.785156 C 22.132812 56.214844 21.699219 56.535156 21.144531 56.746094 L 23.316406 60.675781 L 23.316406 60.753906 Z M 17.824219 52.496094 L 17.824219 56.007812 L 19.699219 56.007812 C 20.304688 56.007812 20.789062 55.851562 21.144531 55.539062 C 21.503906 55.222656 21.683594 54.804688 21.683594 54.28125 C 21.683594 53.707031 21.511719 53.265625 21.171875 52.960938 C 20.828125 52.65625 20.335938 52.5 19.691406 52.496094 Z M 27.292969 60.878906 C 26.359375 60.878906 25.601562 60.574219 25.015625 59.960938 C 24.429688 59.347656 24.140625 58.527344 24.140625 57.5 L 24.140625 57.285156 C 24.140625 56.601562 24.269531 55.996094 24.53125 55.460938 C 24.789062 54.921875 25.15625 54.503906 25.625 54.199219 C 26.09375 53.898438 26.597656 53.746094 27.144531 53.746094 C 28.039062 53.746094 28.734375 54.039062 29.230469 54.628906 C 29.726562 55.21875 29.976562 56.0625 29.976562 57.160156 L 29.976562 57.648438 L 25.3125 57.648438 C 25.332031 58.328125 25.53125 58.875 25.910156 59.292969 C 26.289062 59.710938 26.769531 59.917969 27.355469 59.917969 C 27.769531 59.917969 28.121094 59.835938 28.410156 59.664062 C 28.699219 59.496094 28.953125 59.269531 29.167969 58.992188 L 29.886719 59.550781 C 29.3125 60.4375 28.445312 60.878906 27.292969 60.878906 Z M 27.144531 54.710938 C 26.671875 54.710938 26.273438 54.882812 25.949219 55.230469 C 25.628906 55.574219 25.429688 56.058594 25.351562 56.683594 L 28.796875 56.683594 L 28.796875 56.59375 C 28.765625 55.996094 28.605469 55.53125 28.316406 55.203125 C 28.027344 54.875 27.636719 54.710938 27.144531 54.710938 Z M 36.816406 60.753906 L 35.582031 60.753906 C 35.515625 60.617188 35.460938 60.375 35.417969 60.027344 C 34.871094 60.597656 34.21875 60.878906 33.460938 60.878906 C 32.78125 60.878906 32.226562 60.6875 31.792969 60.304688 C 31.355469 59.921875 31.140625 59.433594 31.140625 58.84375 C 31.140625 58.128906 31.410156 57.570312 31.957031 57.175781 C 32.5 56.777344 33.265625 56.578125 34.253906 56.578125 L 35.398438 56.578125 L 35.398438 56.039062 C 35.398438 55.628906 35.277344 55.300781 35.03125 55.058594 C 34.785156 54.8125 34.421875 54.691406 33.941406 54.691406 C 33.523438 54.691406 33.171875 54.796875 32.886719 55.007812 C 32.601562 55.21875 32.460938 55.476562 32.460938 55.78125 L 31.277344 55.78125 C 31.277344 55.4375 31.402344 55.105469 31.644531 54.785156 C 31.886719 54.464844 32.21875 54.210938 32.636719 54.023438 C 33.054688 53.839844 33.511719 53.746094 34.011719 53.746094 C 34.804688 53.746094 35.429688 53.945312 35.878906 54.339844 C 36.324219 54.734375 36.558594 55.28125 36.574219 55.976562 L 36.574219 59.140625 C 36.574219 59.773438 36.65625 60.277344 36.816406 60.652344 Z M 33.632812 59.855469 C 34 59.855469 34.351562 59.761719 34.683594 59.570312 C 35.011719 59.378906 35.25 59.128906 35.398438 58.824219 L 35.398438 57.414062 L 34.476562 57.414062 C 33.035156 57.414062 32.316406 57.835938 32.316406 58.679688 C 32.316406 59.046875 32.4375 59.335938 32.683594 59.542969 C 32.929688 59.75 33.246094 59.855469 33.632812 59.855469 Z M 41.179688 59.917969 C 41.597656 59.917969 41.964844 59.792969 42.28125 59.539062 C 42.59375 59.28125 42.769531 58.964844 42.800781 58.582031 L 43.914062 58.582031 C 43.890625 58.976562 43.757812 59.355469 43.507812 59.710938 C 43.257812 60.066406 42.921875 60.351562 42.507812 60.5625 C 42.089844 60.773438 41.644531 60.878906 41.179688 60.878906 C 40.242188 60.878906 39.496094 60.566406 38.945312 59.941406 C 38.390625 59.316406 38.117188 58.460938 38.117188 57.375 L 38.117188 57.179688 C 38.117188 56.507812 38.238281 55.914062 38.484375 55.390625 C 38.730469 54.871094 39.082031 54.464844 39.542969 54.179688 C 40.003906 53.890625 40.546875 53.746094 41.171875 53.746094 C 41.945312 53.746094 42.585938 53.976562 43.097656 54.4375 C 43.609375 54.898438 43.878906 55.5 43.914062 56.238281 L 42.800781 56.238281 C 42.769531 55.792969 42.601562 55.425781 42.296875 55.140625 C 41.992188 54.855469 41.621094 54.710938 41.171875 54.710938 C 40.574219 54.710938 40.113281 54.925781 39.785156 55.355469 C 39.457031 55.785156 39.292969 56.410156 39.292969 57.222656 L 39.292969 57.445312 C 39.292969 58.238281 39.457031 58.847656 39.78125 59.277344 C 40.109375 59.703125 40.574219 59.917969 41.179688 59.917969 Z M 45.65625 52.207031 L 46.832031 52.207031 L 46.832031 53.871094 L 48.117188 53.871094 L 48.117188 54.78125 L 46.832031 54.78125 L 46.832031 59.046875 C 46.832031 59.324219 46.890625 59.53125 47.003906 59.667969 C 47.121094 59.804688 47.316406 59.875 47.589844 59.875 C 47.726562 59.875 47.914062 59.847656 48.148438 59.796875 L 48.148438 60.753906 C 47.839844 60.835938 47.539062 60.878906 47.246094 60.878906 C 46.722656 60.878906 46.324219 60.722656 46.058594 60.402344 C 45.789062 60.085938 45.65625 59.632812 45.65625 59.046875 L 45.65625 54.78125 L 44.402344 54.78125 L 44.402344 53.871094 L 45.65625 53.871094 Z M 45.65625 52.207031 "/>
</g>
</svg>
