<?xml version="1.0" encoding="UTF-8"?>
<svg xmlns="http://www.w3.org/2000/svg" xmlns:xlink="http://www.w3.org/1999/xlink" width="64pt" height="64pt" viewBox="0 0 64 64" version="1.1">
<g id="surface4665570">
<path style=" stroke:none;fill-rule:nonzero;fill:rgb(92.941177%,47.058824%,60.000002%);fill-opacity:1;" d="M 36.199219 32.699219 C 36.199219 35.019531 34.320312 36.898438 32 36.898438 C 29.679688 36.898438 27.800781 35.019531 27.800781 32.699219 C 27.800781 30.378906 29.679688 28.5 32 28.5 C 34.320312 28.5 36.199219 30.378906 36.199219 32.699219 Z M 36.199219 32.699219 "/>
<path style=" stroke:none;fill-rule:nonzero;fill:rgb(41.176471%,16.078432%,54.509807%);fill-opacity:1;" d="M 32 37.601562 C 29.296875 37.601562 27.101562 35.402344 27.101562 32.699219 C 27.101562 30 29.296875 27.800781 32 27.800781 C 34.703125 27.800781 36.898438 30 36.898438 32.699219 C 36.898438 35.402344 34.703125 37.601562 32 37.601562 Z M 32 29.199219 C 30.070312 29.199219 28.5 30.769531 28.5 32.699219 C 28.5 34.628906 30.070312 36.199219 32 36.199219 C 33.929688 36.199219 35.5 34.628906 35.5 32.699219 C 35.5 30.769531 33.929688 29.199219 32 29.199219 Z M 32 29.199219 "/>
<path style=" stroke:none;fill-rule:nonzero;fill:rgb(41.176471%,16.078432%,54.509807%);fill-opacity:1;" d="M 32 41.800781 C 20.222656 41.800781 11 37.804688 11 32.699219 C 11 27.597656 20.222656 23.601562 32 23.601562 C 43.777344 23.601562 53 27.597656 53 32.699219 C 53 37.804688 43.777344 41.800781 32 41.800781 Z M 32 25 C 21.375 25 12.398438 28.527344 12.398438 32.699219 C 12.398438 36.875 21.375 40.398438 32 40.398438 C 42.625 40.398438 51.601562 36.875 51.601562 32.699219 C 51.601562 28.527344 42.625 25 32 25 Z M 32 25 "/>
<path style=" stroke:none;fill-rule:nonzero;fill:rgb(41.176471%,16.078432%,54.509807%);fill-opacity:1;" d="M 23.820312 51.480469 C 22.964844 51.480469 22.1875 51.28125 21.5 50.886719 C 19.296875 49.613281 18.402344 46.480469 18.984375 42.070312 C 19.539062 37.867188 21.363281 32.921875 24.117188 28.148438 C 26.875 23.375 30.246094 19.324219 33.605469 16.742188 C 37.140625 14.03125 40.296875 13.242188 42.5 14.515625 C 44.703125 15.785156 45.597656 18.917969 45.015625 23.332031 C 44.460938 27.535156 42.636719 32.476562 39.882812 37.25 C 37.125 42.023438 33.753906 46.074219 30.394531 48.65625 C 27.960938 50.523438 25.710938 51.480469 23.820312 51.480469 Z M 40.179688 15.324219 C 38.613281 15.324219 36.625 16.191406 34.460938 17.855469 C 31.238281 20.328125 28 24.230469 25.332031 28.851562 C 22.664062 33.46875 20.90625 38.226562 20.371094 42.253906 C 19.875 46.011719 20.542969 48.714844 22.199219 49.671875 C 23.855469 50.632812 26.53125 49.855469 29.539062 47.546875 C 32.761719 45.074219 36 41.167969 38.667969 36.550781 C 41.335938 31.929688 43.09375 27.171875 43.628906 23.148438 C 44.125 19.386719 43.457031 16.683594 41.800781 15.726562 C 41.335938 15.457031 40.789062 15.324219 40.179688 15.324219 Z M 40.179688 15.324219 "/>
<path style=" stroke:none;fill-rule:nonzero;fill:rgb(41.176471%,16.078432%,54.509807%);fill-opacity:1;" d="M 40.179688 51.480469 C 38.292969 51.480469 36.039062 50.523438 33.605469 48.65625 C 30.246094 46.074219 26.875 42.023438 24.117188 37.25 C 21.363281 32.476562 19.539062 27.535156 18.984375 23.332031 C 18.402344 18.917969 19.296875 15.785156 21.5 14.515625 C 23.703125 13.242188 26.863281 14.035156 30.394531 16.746094 C 33.753906 19.324219 37.125 23.378906 39.882812 28.152344 C 42.636719 32.925781 44.460938 37.867188 45.015625 42.070312 C 45.597656 46.480469 44.703125 49.613281 42.5 50.886719 C 41.8125 51.28125 41.03125 51.480469 40.179688 51.480469 Z M 23.820312 15.324219 C 23.210938 15.324219 22.664062 15.457031 22.199219 15.726562 C 20.542969 16.683594 19.875 19.386719 20.371094 23.148438 C 20.90625 27.171875 22.664062 31.933594 25.332031 36.550781 C 28 41.167969 31.238281 45.074219 34.460938 47.546875 C 37.46875 49.855469 40.144531 50.628906 41.800781 49.671875 C 43.457031 48.714844 44.125 46.011719 43.628906 42.253906 C 43.09375 38.226562 41.335938 33.46875 38.667969 28.851562 C 36 24.230469 32.761719 20.328125 29.539062 17.855469 C 27.378906 16.191406 25.386719 15.324219 23.820312 15.324219 Z M 23.820312 15.324219 "/>
<path style=" stroke:none;fill-rule:nonzero;fill:rgb(41.176471%,16.078432%,54.509807%);fill-opacity:1;" d="M 16.925781 42.480469 C 16.894531 42.480469 16.863281 42.476562 16.832031 42.472656 L 15.445312 42.289062 C 15.058594 42.238281 14.789062 41.886719 14.84375 41.503906 C 14.894531 41.121094 15.242188 40.851562 15.628906 40.902344 L 17.015625 41.085938 C 17.398438 41.136719 17.667969 41.488281 17.617188 41.871094 C 17.570312 42.222656 17.269531 42.480469 16.925781 42.480469 Z M 16.925781 42.480469 "/>
<path style=" stroke:none;fill-rule:nonzero;fill:rgb(41.176471%,16.078432%,54.509807%);fill-opacity:1;" d="M 15.335938 45.917969 C 14.960938 45.917969 14.648438 45.621094 14.636719 45.242188 C 14.625 44.855469 14.925781 44.53125 15.3125 44.519531 L 16.710938 44.472656 C 17.097656 44.449219 17.421875 44.761719 17.433594 45.148438 C 17.449219 45.535156 17.144531 45.859375 16.757812 45.871094 L 15.359375 45.917969 C 15.351562 45.917969 15.34375 45.917969 15.335938 45.917969 Z M 15.335938 45.917969 "/>
<path style=" stroke:none;fill-rule:nonzero;fill:rgb(41.176471%,16.078432%,54.509807%);fill-opacity:1;" d="M 15.90625 49.566406 C 15.605469 49.566406 15.328125 49.371094 15.238281 49.070312 C 15.125 48.699219 15.332031 48.308594 15.703125 48.195312 L 17.039062 47.785156 C 17.410156 47.671875 17.800781 47.882812 17.914062 48.25 C 18.027344 48.621094 17.820312 49.011719 17.449219 49.125 L 16.109375 49.535156 C 16.042969 49.554688 15.972656 49.566406 15.90625 49.566406 Z M 15.90625 49.566406 "/>
<path style=" stroke:none;fill-rule:nonzero;fill:rgb(41.176471%,16.078432%,54.509807%);fill-opacity:1;" d="M 17.6875 52.894531 C 17.488281 52.894531 17.292969 52.8125 17.15625 52.652344 C 16.902344 52.359375 16.9375 51.917969 17.230469 51.664062 L 18.292969 50.753906 C 18.585938 50.503906 19.027344 50.535156 19.28125 50.828125 C 19.53125 51.121094 19.496094 51.5625 19.203125 51.816406 L 18.140625 52.726562 C 18.011719 52.839844 17.847656 52.894531 17.6875 52.894531 Z M 17.6875 52.894531 "/>
<path style=" stroke:none;fill-rule:nonzero;fill:rgb(41.176471%,16.078432%,54.509807%);fill-opacity:1;" d="M 48.640625 22.703125 C 48.625 22.703125 48.613281 22.703125 48.597656 22.703125 L 47.203125 22.621094 C 46.816406 22.597656 46.519531 22.269531 46.542969 21.882812 C 46.566406 21.496094 46.898438 21.203125 47.28125 21.222656 L 48.679688 21.304688 C 49.066406 21.324219 49.359375 21.65625 49.335938 22.042969 C 49.316406 22.414062 49.007812 22.703125 48.640625 22.703125 Z M 48.640625 22.703125 "/>
<path style=" stroke:none;fill-rule:nonzero;fill:rgb(41.176471%,16.078432%,54.509807%);fill-opacity:1;" d="M 47.113281 19.257812 C 46.773438 19.257812 46.472656 19.007812 46.421875 18.660156 C 46.363281 18.28125 46.628906 17.921875 47.011719 17.863281 L 48.394531 17.65625 C 48.777344 17.605469 49.132812 17.863281 49.191406 18.246094 C 49.25 18.628906 48.984375 18.984375 48.601562 19.042969 L 47.21875 19.25 C 47.183594 19.253906 47.148438 19.257812 47.113281 19.257812 Z M 47.113281 19.257812 "/>
<path style=" stroke:none;fill-rule:nonzero;fill:rgb(41.176471%,16.078432%,54.509807%);fill-opacity:1;" d="M 46.152344 16.136719 C 45.898438 16.136719 45.65625 16 45.53125 15.761719 C 45.351562 15.417969 45.484375 14.996094 45.824219 14.816406 L 47.066406 14.164062 C 47.40625 13.984375 47.828125 14.117188 48.007812 14.460938 C 48.191406 14.800781 48.054688 15.226562 47.714844 15.40625 L 46.472656 16.054688 C 46.371094 16.109375 46.257812 16.136719 46.152344 16.136719 Z M 46.152344 16.136719 "/>
<path style=" stroke:none;fill-rule:nonzero;fill:rgb(41.176471%,16.078432%,54.509807%);fill-opacity:1;" d="M 44.085938 13.742188 C 43.945312 13.742188 43.804688 13.703125 43.679688 13.613281 C 43.367188 13.390625 43.292969 12.953125 43.515625 12.636719 L 44.328125 11.496094 C 44.550781 11.179688 44.988281 11.105469 45.304688 11.332031 C 45.617188 11.554688 45.691406 11.992188 45.46875 12.308594 L 44.65625 13.449219 C 44.519531 13.640625 44.304688 13.742188 44.085938 13.742188 Z M 44.085938 13.742188 "/>
<path style=" stroke:none;fill-rule:nonzero;fill:rgb(50.588238%,37.64706%,61.56863%);fill-opacity:1;" d="M 22.835938 60.386719 L 20.988281 56.941406 L 18.988281 56.941406 L 18.988281 60.386719 L 17.859375 60.386719 L 17.859375 51.867188 L 20.679688 51.867188 C 21.640625 51.867188 22.375 52.085938 22.890625 52.523438 C 23.410156 52.960938 23.667969 53.597656 23.667969 54.429688 C 23.667969 54.960938 23.527344 55.421875 23.238281 55.816406 C 22.953125 56.210938 22.554688 56.507812 22.039062 56.699219 L 24.042969 60.316406 L 24.042969 60.386719 Z M 18.988281 52.792969 L 18.988281 56.019531 L 20.710938 56.019531 C 21.273438 56.019531 21.714844 55.875 22.042969 55.589844 C 22.375 55.300781 22.539062 54.914062 22.539062 54.429688 C 22.539062 53.902344 22.382812 53.5 22.066406 53.21875 C 21.753906 52.9375 21.300781 52.796875 20.707031 52.792969 Z M 27.699219 60.503906 C 26.839844 60.503906 26.140625 60.222656 25.605469 59.65625 C 25.066406 59.09375 24.796875 58.339844 24.796875 57.394531 L 24.796875 57.199219 C 24.796875 56.570312 24.917969 56.007812 25.15625 55.515625 C 25.394531 55.023438 25.730469 54.636719 26.164062 54.355469 C 26.59375 54.078125 27.0625 53.941406 27.566406 53.941406 C 28.386719 53.941406 29.027344 54.210938 29.480469 54.753906 C 29.9375 55.292969 30.167969 56.070312 30.167969 57.082031 L 30.167969 57.53125 L 25.878906 57.53125 C 25.894531 58.15625 26.078125 58.660156 26.425781 59.042969 C 26.777344 59.429688 27.21875 59.621094 27.757812 59.621094 C 28.140625 59.621094 28.464844 59.542969 28.730469 59.386719 C 28.992188 59.230469 29.226562 59.023438 29.425781 58.765625 L 30.085938 59.277344 C 29.554688 60.09375 28.757812 60.503906 27.699219 60.503906 Z M 27.566406 54.828125 C 27.128906 54.828125 26.761719 54.988281 26.464844 55.304688 C 26.167969 55.621094 25.984375 56.070312 25.914062 56.644531 L 29.085938 56.644531 L 29.085938 56.558594 C 29.054688 56.007812 28.90625 55.582031 28.640625 55.28125 C 28.375 54.980469 28.015625 54.828125 27.566406 54.828125 Z M 36.460938 60.386719 L 35.328125 60.386719 C 35.265625 60.261719 35.214844 60.039062 35.175781 59.71875 C 34.671875 60.242188 34.070312 60.503906 33.375 60.503906 C 32.75 60.503906 32.238281 60.328125 31.835938 59.972656 C 31.4375 59.621094 31.238281 59.171875 31.238281 58.628906 C 31.238281 57.972656 31.488281 57.460938 31.992188 57.097656 C 32.492188 56.730469 33.195312 56.550781 34.105469 56.550781 L 35.15625 56.550781 L 35.15625 56.050781 C 35.15625 55.671875 35.042969 55.371094 34.820312 55.148438 C 34.589844 54.921875 34.257812 54.808594 33.820312 54.808594 C 33.433594 54.808594 33.109375 54.90625 32.847656 55.105469 C 32.585938 55.296875 32.453125 55.535156 32.453125 55.8125 L 31.367188 55.8125 C 31.367188 55.496094 31.480469 55.191406 31.703125 54.894531 C 31.929688 54.601562 32.230469 54.367188 32.617188 54.199219 C 33 54.027344 33.421875 53.941406 33.882812 53.941406 C 34.609375 53.941406 35.183594 54.121094 35.597656 54.488281 C 36.011719 54.851562 36.226562 55.351562 36.242188 55.992188 L 36.242188 58.90625 C 36.242188 59.488281 36.316406 59.949219 36.460938 60.292969 Z M 33.53125 59.558594 C 33.871094 59.558594 34.191406 59.472656 34.496094 59.296875 C 34.800781 59.121094 35.019531 58.894531 35.15625 58.613281 L 35.15625 57.316406 L 34.308594 57.316406 C 32.984375 57.316406 32.320312 57.703125 32.320312 58.480469 C 32.320312 58.816406 32.433594 59.082031 32.660156 59.273438 C 32.886719 59.464844 33.175781 59.558594 33.53125 59.558594 Z M 40.476562 59.621094 C 40.863281 59.621094 41.199219 59.503906 41.488281 59.269531 C 41.777344 59.035156 41.9375 58.742188 41.964844 58.390625 L 42.992188 58.390625 C 42.972656 58.753906 42.847656 59.097656 42.617188 59.425781 C 42.386719 59.753906 42.078125 60.015625 41.695312 60.210938 C 41.3125 60.40625 40.90625 60.503906 40.476562 60.503906 C 39.613281 60.503906 38.925781 60.214844 38.417969 59.640625 C 37.910156 59.066406 37.65625 58.277344 37.65625 57.277344 L 37.65625 57.097656 C 37.65625 56.484375 37.769531 55.933594 37.996094 55.457031 C 38.222656 54.972656 38.546875 54.601562 38.96875 54.339844 C 39.390625 54.074219 39.890625 53.941406 40.46875 53.941406 C 41.179688 53.941406 41.769531 54.152344 42.238281 54.578125 C 42.710938 55 42.960938 55.550781 42.992188 56.230469 L 41.964844 56.230469 C 41.9375 55.820312 41.78125 55.484375 41.503906 55.222656 C 41.222656 54.960938 40.878906 54.828125 40.46875 54.828125 C 39.921875 54.828125 39.496094 55.027344 39.191406 55.421875 C 38.890625 55.816406 38.738281 56.390625 38.738281 57.136719 L 38.738281 57.34375 C 38.738281 58.074219 38.890625 58.636719 39.191406 59.027344 C 39.488281 59.421875 39.917969 59.621094 40.476562 59.621094 Z M 44.59375 52.523438 L 45.679688 52.523438 L 45.679688 54.058594 L 46.859375 54.058594 L 46.859375 54.894531 L 45.679688 54.894531 L 45.679688 58.816406 C 45.679688 59.070312 45.730469 59.261719 45.835938 59.386719 C 45.941406 59.515625 46.121094 59.578125 46.375 59.578125 C 46.5 59.578125 46.667969 59.554688 46.886719 59.507812 L 46.886719 60.386719 C 46.601562 60.464844 46.324219 60.503906 46.058594 60.503906 C 45.574219 60.503906 45.207031 60.355469 44.960938 60.0625 C 44.71875 59.769531 44.59375 59.355469 44.59375 58.816406 L 44.59375 54.894531 L 43.441406 54.894531 L 43.441406 54.058594 L 44.59375 54.058594 Z M 44.59375 52.523438 "/>
</g>
</svg>
