<?xml version="1.0" encoding="UTF-8"?>
<svg xmlns="http://www.w3.org/2000/svg" xmlns:xlink="http://www.w3.org/1999/xlink" width="64pt" height="64pt" viewBox="0 0 64 64" version="1.1">
<g id="surface4683707">
<path style=" stroke:none;fill-rule:nonzero;fill:rgb(92.941177%,47.058824%,60.000002%);fill-opacity:1;" d="M 36.199219 32.699219 C 36.199219 35.019531 34.320312 36.898438 32 36.898438 C 29.679688 36.898438 27.800781 35.019531 27.800781 32.699219 C 27.800781 30.378906 29.679688 28.5 32 28.5 C 34.320312 28.5 36.199219 30.378906 36.199219 32.699219 Z M 36.199219 32.699219 "/>
<path style=" stroke:none;fill-rule:nonzero;fill:rgb(46.666667%,13.725491%,58.431375%);fill-opacity:1;" d="M 32 37.601562 C 29.296875 37.601562 27.101562 35.402344 27.101562 32.699219 C 27.101562 30 29.296875 27.800781 32 27.800781 C 34.703125 27.800781 36.898438 30 36.898438 32.699219 C 36.898438 35.402344 34.703125 37.601562 32 37.601562 Z M 32 29.199219 C 30.070312 29.199219 28.5 30.769531 28.5 32.699219 C 28.5 34.628906 30.070312 36.199219 32 36.199219 C 33.929688 36.199219 35.5 34.628906 35.5 32.699219 C 35.5 30.769531 33.929688 29.199219 32 29.199219 Z M 32 29.199219 "/>
<path style=" stroke:none;fill-rule:nonzero;fill:rgb(46.666667%,13.725491%,58.431375%);fill-opacity:1;" d="M 32 41.800781 C 20.222656 41.800781 11 37.804688 11 32.699219 C 11 27.597656 20.222656 23.601562 32 23.601562 C 43.777344 23.601562 53 27.597656 53 32.699219 C 53 37.804688 43.777344 41.800781 32 41.800781 Z M 32 25 C 21.375 25 12.398438 28.527344 12.398438 32.699219 C 12.398438 36.875 21.375 40.398438 32 40.398438 C 42.625 40.398438 51.601562 36.875 51.601562 32.699219 C 51.601562 28.527344 42.625 25 32 25 Z M 32 25 "/>
<path style=" stroke:none;fill-rule:nonzero;fill:rgb(46.666667%,13.725491%,58.431375%);fill-opacity:1;" d="M 23.820312 51.480469 C 22.964844 51.480469 22.1875 51.28125 21.5 50.886719 C 19.296875 49.613281 18.402344 46.480469 18.984375 42.070312 C 19.539062 37.867188 21.363281 32.921875 24.117188 28.148438 C 26.875 23.375 30.246094 19.324219 33.605469 16.742188 C 37.140625 14.03125 40.296875 13.242188 42.5 14.515625 C 44.703125 15.785156 45.597656 18.917969 45.015625 23.332031 C 44.460938 27.535156 42.636719 32.476562 39.882812 37.25 C 37.125 42.023438 33.753906 46.074219 30.394531 48.65625 C 27.960938 50.523438 25.710938 51.480469 23.820312 51.480469 Z M 40.179688 15.324219 C 38.613281 15.324219 36.625 16.191406 34.460938 17.855469 C 31.238281 20.328125 28 24.230469 25.332031 28.851562 C 22.664062 33.46875 20.90625 38.226562 20.371094 42.253906 C 19.875 46.011719 20.542969 48.714844 22.199219 49.671875 C 23.855469 50.632812 26.53125 49.855469 29.539062 47.546875 C 32.761719 45.074219 36 41.167969 38.667969 36.550781 C 41.335938 31.929688 43.09375 27.171875 43.628906 23.148438 C 44.125 19.386719 43.457031 16.683594 41.800781 15.726562 C 41.335938 15.457031 40.789062 15.324219 40.179688 15.324219 Z M 40.179688 15.324219 "/>
<path style=" stroke:none;fill-rule:nonzero;fill:rgb(46.666667%,13.725491%,58.431375%);fill-opacity:1;" d="M 40.179688 51.480469 C 38.292969 51.480469 36.039062 50.523438 33.605469 48.65625 C 30.246094 46.074219 26.875 42.023438 24.117188 37.25 C 21.363281 32.476562 19.539062 27.535156 18.984375 23.332031 C 18.402344 18.917969 19.296875 15.785156 21.5 14.515625 C 23.703125 13.242188 26.863281 14.035156 30.394531 16.746094 C 33.753906 19.324219 37.125 23.378906 39.882812 28.152344 C 42.636719 32.925781 44.460938 37.867188 45.015625 42.070312 C 45.597656 46.480469 44.703125 49.613281 42.5 50.886719 C 41.8125 51.28125 41.03125 51.480469 40.179688 51.480469 Z M 23.820312 15.324219 C 23.210938 15.324219 22.664062 15.457031 22.199219 15.726562 C 20.542969 16.683594 19.875 19.386719 20.371094 23.148438 C 20.90625 27.171875 22.664062 31.933594 25.332031 36.550781 C 28 41.167969 31.238281 45.074219 34.460938 47.546875 C 37.46875 49.855469 40.144531 50.628906 41.800781 49.671875 C 43.457031 48.714844 44.125 46.011719 43.628906 42.253906 C 43.09375 38.226562 41.335938 33.46875 38.667969 28.851562 C 36 24.230469 32.761719 20.328125 29.539062 17.855469 C 27.378906 16.191406 25.386719 15.324219 23.820312 15.324219 Z M 23.820312 15.324219 "/>
<path style=" stroke:none;fill-rule:nonzero;fill:rgb(46.666667%,13.725491%,58.431375%);fill-opacity:1;" d="M 16.925781 42.480469 C 16.894531 42.480469 16.863281 42.476562 16.832031 42.472656 L 15.445312 42.289062 C 15.058594 42.238281 14.789062 41.886719 14.84375 41.503906 C 14.894531 41.121094 15.242188 40.851562 15.628906 40.902344 L 17.015625 41.085938 C 17.398438 41.136719 17.667969 41.488281 17.617188 41.871094 C 17.570312 42.222656 17.269531 42.480469 16.925781 42.480469 Z M 16.925781 42.480469 "/>
<path style=" stroke:none;fill-rule:nonzero;fill:rgb(46.666667%,13.725491%,58.431375%);fill-opacity:1;" d="M 15.335938 45.917969 C 14.960938 45.917969 14.648438 45.621094 14.636719 45.242188 C 14.625 44.855469 14.925781 44.53125 15.3125 44.519531 L 16.710938 44.472656 C 17.097656 44.449219 17.421875 44.761719 17.433594 45.148438 C 17.449219 45.535156 17.144531 45.859375 16.757812 45.871094 L 15.359375 45.917969 C 15.351562 45.917969 15.34375 45.917969 15.335938 45.917969 Z M 15.335938 45.917969 "/>
<path style=" stroke:none;fill-rule:nonzero;fill:rgb(46.666667%,13.725491%,58.431375%);fill-opacity:1;" d="M 15.90625 49.566406 C 15.605469 49.566406 15.328125 49.371094 15.238281 49.070312 C 15.125 48.699219 15.332031 48.308594 15.703125 48.195312 L 17.039062 47.785156 C 17.410156 47.671875 17.800781 47.882812 17.914062 48.25 C 18.027344 48.621094 17.820312 49.011719 17.449219 49.125 L 16.109375 49.535156 C 16.042969 49.554688 15.972656 49.566406 15.90625 49.566406 Z M 15.90625 49.566406 "/>
<path style=" stroke:none;fill-rule:nonzero;fill:rgb(46.666667%,13.725491%,58.431375%);fill-opacity:1;" d="M 17.6875 52.894531 C 17.488281 52.894531 17.292969 52.8125 17.15625 52.652344 C 16.902344 52.359375 16.9375 51.917969 17.230469 51.664062 L 18.292969 50.753906 C 18.585938 50.503906 19.027344 50.535156 19.28125 50.828125 C 19.53125 51.121094 19.496094 51.5625 19.203125 51.816406 L 18.140625 52.726562 C 18.011719 52.839844 17.847656 52.894531 17.6875 52.894531 Z M 17.6875 52.894531 "/>
<path style=" stroke:none;fill-rule:nonzero;fill:rgb(46.666667%,13.725491%,58.431375%);fill-opacity:1;" d="M 48.640625 22.703125 C 48.625 22.703125 48.613281 22.703125 48.597656 22.703125 L 47.203125 22.621094 C 46.816406 22.597656 46.519531 22.269531 46.542969 21.882812 C 46.566406 21.496094 46.898438 21.203125 47.28125 21.222656 L 48.679688 21.304688 C 49.066406 21.324219 49.359375 21.65625 49.335938 22.042969 C 49.316406 22.414062 49.007812 22.703125 48.640625 22.703125 Z M 48.640625 22.703125 "/>
<path style=" stroke:none;fill-rule:nonzero;fill:rgb(46.666667%,13.725491%,58.431375%);fill-opacity:1;" d="M 47.113281 19.257812 C 46.773438 19.257812 46.472656 19.007812 46.421875 18.660156 C 46.363281 18.28125 46.628906 17.921875 47.011719 17.863281 L 48.394531 17.65625 C 48.777344 17.605469 49.132812 17.863281 49.191406 18.246094 C 49.25 18.628906 48.984375 18.984375 48.601562 19.042969 L 47.21875 19.25 C 47.183594 19.253906 47.148438 19.257812 47.113281 19.257812 Z M 47.113281 19.257812 "/>
<path style=" stroke:none;fill-rule:nonzero;fill:rgb(46.666667%,13.725491%,58.431375%);fill-opacity:1;" d="M 46.152344 16.136719 C 45.898438 16.136719 45.65625 16 45.53125 15.761719 C 45.351562 15.417969 45.484375 14.996094 45.824219 14.816406 L 47.066406 14.164062 C 47.40625 13.984375 47.828125 14.117188 48.007812 14.460938 C 48.191406 14.800781 48.054688 15.226562 47.714844 15.40625 L 46.472656 16.054688 C 46.371094 16.109375 46.257812 16.136719 46.152344 16.136719 Z M 46.152344 16.136719 "/>
<path style=" stroke:none;fill-rule:nonzero;fill:rgb(46.666667%,13.725491%,58.431375%);fill-opacity:1;" d="M 44.085938 13.742188 C 43.945312 13.742188 43.804688 13.703125 43.679688 13.613281 C 43.367188 13.390625 43.292969 12.953125 43.515625 12.636719 L 44.328125 11.496094 C 44.550781 11.179688 44.988281 11.105469 45.304688 11.332031 C 45.617188 11.554688 45.691406 11.992188 45.46875 12.308594 L 44.65625 13.449219 C 44.519531 13.640625 44.304688 13.742188 44.085938 13.742188 Z M 44.085938 13.742188 "/>
<path style=" stroke:none;fill-rule:nonzero;fill:rgb(80.000001%,80.000001%,80.000001%);fill-opacity:1;" d="M 20.269531 61.398438 L 18.136719 57.429688 L 15.832031 57.429688 L 15.832031 61.398438 L 14.53125 61.398438 L 14.53125 51.582031 L 17.78125 51.582031 C 18.886719 51.582031 19.738281 51.835938 20.332031 52.339844 C 20.929688 52.84375 21.226562 53.574219 21.226562 54.535156 C 21.226562 55.144531 21.0625 55.679688 20.730469 56.132812 C 20.398438 56.585938 19.941406 56.925781 19.351562 57.152344 L 21.65625 61.316406 L 21.65625 61.398438 Z M 15.832031 52.648438 L 15.832031 56.367188 L 17.824219 56.367188 C 18.464844 56.367188 18.976562 56.203125 19.355469 55.871094 C 19.734375 55.539062 19.925781 55.09375 19.925781 54.535156 C 19.925781 53.929688 19.742188 53.464844 19.382812 53.140625 C 19.019531 52.816406 18.496094 52.652344 17.816406 52.648438 Z M 25.871094 61.53125 C 24.882812 61.53125 24.074219 61.207031 23.457031 60.558594 C 22.835938 59.910156 22.527344 59.042969 22.527344 57.953125 L 22.527344 57.726562 C 22.527344 57 22.664062 56.355469 22.941406 55.789062 C 23.214844 55.21875 23.601562 54.773438 24.097656 54.449219 C 24.597656 54.128906 25.132812 53.96875 25.714844 53.96875 C 26.664062 53.96875 27.398438 54.28125 27.925781 54.90625 C 28.453125 55.53125 28.714844 56.425781 28.714844 57.589844 L 28.714844 58.109375 L 23.773438 58.109375 C 23.792969 58.828125 24 59.40625 24.402344 59.851562 C 24.804688 60.292969 25.316406 60.515625 25.9375 60.515625 C 26.375 60.515625 26.75 60.425781 27.054688 60.242188 C 27.363281 60.066406 27.628906 59.828125 27.859375 59.53125 L 28.617188 60.125 C 28.007812 61.0625 27.09375 61.53125 25.871094 61.53125 Z M 25.714844 54.996094 C 25.210938 54.996094 24.789062 55.175781 24.449219 55.542969 C 24.105469 55.910156 23.894531 56.421875 23.8125 57.085938 L 27.46875 57.085938 L 27.46875 56.992188 C 27.429688 56.355469 27.261719 55.867188 26.953125 55.515625 C 26.648438 55.167969 26.234375 54.996094 25.714844 54.996094 Z M 35.964844 61.398438 L 34.660156 61.398438 C 34.585938 61.253906 34.53125 60.996094 34.484375 60.628906 C 33.90625 61.230469 33.210938 61.53125 32.410156 61.53125 C 31.691406 61.53125 31.101562 61.328125 30.640625 60.921875 C 30.179688 60.515625 29.945312 60 29.945312 59.375 C 29.945312 58.617188 30.234375 58.027344 30.8125 57.605469 C 31.390625 57.183594 32.203125 56.976562 33.25 56.976562 L 34.464844 56.976562 L 34.464844 56.402344 C 34.464844 55.964844 34.332031 55.621094 34.074219 55.363281 C 33.8125 55.105469 33.429688 54.972656 32.921875 54.972656 C 32.476562 54.972656 32.101562 55.085938 31.800781 55.308594 C 31.5 55.535156 31.351562 55.808594 31.351562 56.125 L 30.09375 56.125 C 30.09375 55.761719 30.226562 55.410156 30.484375 55.070312 C 30.742188 54.730469 31.09375 54.464844 31.535156 54.265625 C 31.980469 54.066406 32.464844 53.96875 32.996094 53.96875 C 33.835938 53.96875 34.492188 54.179688 34.96875 54.597656 C 35.445312 55.019531 35.695312 55.597656 35.710938 56.335938 L 35.710938 59.691406 C 35.710938 60.363281 35.796875 60.894531 35.964844 61.289062 Z M 32.589844 60.445312 C 32.980469 60.445312 33.351562 60.347656 33.703125 60.144531 C 34.054688 59.941406 34.308594 59.679688 34.464844 59.355469 L 34.464844 57.859375 L 33.488281 57.859375 C 31.957031 57.859375 31.195312 58.304688 31.195312 59.199219 C 31.195312 59.589844 31.324219 59.894531 31.585938 60.117188 C 31.847656 60.335938 32.179688 60.445312 32.589844 60.445312 Z M 40.59375 60.515625 C 41.035156 60.515625 41.425781 60.378906 41.757812 60.109375 C 42.089844 59.839844 42.273438 59.503906 42.308594 59.101562 L 43.488281 59.101562 C 43.464844 59.515625 43.324219 59.914062 43.058594 60.292969 C 42.792969 60.671875 42.4375 60.96875 41.996094 61.195312 C 41.554688 61.421875 41.085938 61.53125 40.59375 61.53125 C 39.597656 61.53125 38.808594 61.203125 38.222656 60.539062 C 37.636719 59.875 37.339844 58.96875 37.339844 57.820312 L 37.339844 57.609375 C 37.339844 56.898438 37.472656 56.269531 37.730469 55.714844 C 37.992188 55.160156 38.367188 54.734375 38.855469 54.425781 C 39.34375 54.121094 39.917969 53.96875 40.585938 53.96875 C 41.402344 53.96875 42.082031 54.214844 42.625 54.703125 C 43.164062 55.191406 43.453125 55.828125 43.488281 56.613281 L 42.308594 56.613281 C 42.273438 56.140625 42.097656 55.753906 41.773438 55.449219 C 41.453125 55.144531 41.058594 54.996094 40.585938 54.996094 C 39.949219 54.996094 39.460938 55.222656 39.113281 55.679688 C 38.765625 56.132812 38.589844 56.792969 38.589844 57.65625 L 38.589844 57.890625 C 38.589844 58.730469 38.761719 59.378906 39.109375 59.835938 C 39.453125 60.289062 39.949219 60.515625 40.59375 60.515625 Z M 45.335938 52.339844 L 46.582031 52.339844 L 46.582031 54.105469 L 47.945312 54.105469 L 47.945312 55.066406 L 46.582031 55.066406 L 46.582031 59.589844 C 46.582031 59.882812 46.644531 60.101562 46.765625 60.25 C 46.886719 60.394531 47.09375 60.46875 47.386719 60.46875 C 47.527344 60.46875 47.726562 60.441406 47.980469 60.386719 L 47.980469 61.398438 C 47.652344 61.488281 47.332031 61.53125 47.019531 61.53125 C 46.464844 61.53125 46.042969 61.363281 45.761719 61.027344 C 45.476562 60.691406 45.335938 60.210938 45.335938 59.589844 L 45.335938 55.066406 L 44.007812 55.066406 L 44.007812 54.105469 L 45.335938 54.105469 Z M 45.335938 52.339844 "/>
</g>
</svg>
