<?xml version="1.0" encoding="UTF-8"?>
<svg xmlns="http://www.w3.org/2000/svg" xmlns:xlink="http://www.w3.org/1999/xlink" width="48pt" height="48pt" viewBox="0 0 48 48" version="1.1">
<g id="surface4640208">
<path style=" stroke:none;fill-rule:nonzero;fill:rgb(49.411765%,34.117648%,76.078433%);fill-opacity:1;" d="M 23.300781 10 C 18.667969 10 14.898438 15.089844 14.898438 21.34375 C 14.898438 24.726562 16.007812 27.761719 17.753906 29.839844 C 17.722656 29.988281 17.699219 30.140625 17.699219 30.300781 C 17.699219 31.460938 18.640625 32.398438 19.800781 32.398438 C 20.960938 32.398438 21.898438 31.460938 21.898438 30.300781 C 21.898438 29.140625 20.960938 28.199219 19.800781 28.199219 C 19.578125 28.199219 19.371094 28.242188 19.171875 28.304688 C 17.84375 26.613281 17 24.121094 17 21.34375 C 17 16.246094 19.824219 12.101562 23.300781 12.101562 C 25.984375 12.101562 28.277344 14.582031 29.183594 18.0625 C 29.96875 18.304688 30.75 18.609375 31.515625 18.976562 C 30.707031 13.855469 27.332031 10 23.300781 10 Z M 23.300781 10 "/>
<path style=" stroke:none;fill-rule:nonzero;fill:rgb(49.411765%,34.117648%,76.078433%);fill-opacity:1;" d="M 32.054688 21.257812 C 29.292969 19.585938 26.191406 18.847656 23.527344 19.1875 C 23.140625 18.710938 22.558594 18.398438 21.898438 18.398438 C 20.738281 18.398438 19.800781 19.339844 19.800781 20.5 C 19.800781 21.660156 20.738281 22.601562 21.898438 22.601562 C 22.789062 22.601562 23.546875 22.042969 23.851562 21.261719 C 26.035156 20.996094 28.621094 21.632812 30.964844 23.054688 C 35.449219 25.773438 37.734375 30.453125 36.0625 33.492188 C 35.484375 34.546875 34.464844 35.292969 33.109375 35.65625 C 31.511719 36.085938 29.605469 35.933594 27.703125 35.285156 C 27.113281 35.828125 26.476562 36.335938 25.792969 36.804688 C 27.582031 37.585938 29.433594 37.996094 31.164062 37.996094 C 32.03125 37.996094 32.871094 37.894531 33.65625 37.683594 C 35.574219 37.171875 37.042969 36.070312 37.902344 34.503906 C 40.109375 30.492188 37.488281 24.550781 32.054688 21.257812 Z M 32.054688 21.257812 "/>
<path style=" stroke:none;fill-rule:nonzero;fill:rgb(49.411765%,34.117648%,76.078433%);fill-opacity:1;" d="M 31.699219 27.496094 C 31.699219 26.339844 30.761719 25.398438 29.601562 25.398438 C 28.441406 25.398438 27.5 26.339844 27.5 27.496094 C 27.5 27.960938 27.660156 28.390625 27.921875 28.738281 C 27.023438 30.699219 25.300781 32.636719 22.976562 34.042969 C 20.269531 35.683594 17.246094 36.285156 14.886719 35.65625 C 13.535156 35.292969 12.515625 34.546875 11.933594 33.492188 C 10.742188 31.328125 11.570312 28.328125 13.761719 25.800781 C 13.535156 25 13.367188 24.164062 13.269531 23.296875 C 9.71875 26.65625 8.292969 31.226562 10.097656 34.503906 C 10.957031 36.070312 12.425781 37.171875 14.34375 37.683594 C 15.128906 37.894531 15.96875 37.996094 16.835938 37.996094 C 19.179688 37.996094 21.742188 37.25 24.066406 35.839844 C 26.75 34.214844 28.742188 31.9375 29.8125 29.566406 C 30.871094 29.460938 31.699219 28.578125 31.699219 27.496094 Z M 31.699219 27.496094 "/>
<path style=" stroke:none;fill-rule:nonzero;fill:rgb(60.784316%,34.901962%,71.372551%);fill-opacity:1;" d="M 12.636719 46.203125 L 10.921875 43.003906 L 9.0625 43.003906 L 9.0625 46.203125 L 8.011719 46.203125 L 8.011719 38.289062 L 10.632812 38.289062 C 11.523438 38.289062 12.210938 38.492188 12.691406 38.898438 C 13.167969 39.304688 13.410156 39.894531 13.410156 40.671875 C 13.410156 41.164062 13.277344 41.589844 13.011719 41.957031 C 12.742188 42.324219 12.375 42.597656 11.898438 42.78125 L 13.757812 46.140625 L 13.757812 46.203125 Z M 9.0625 39.148438 L 9.0625 42.148438 L 10.664062 42.148438 C 11.183594 42.148438 11.59375 42.015625 11.902344 41.746094 C 12.207031 41.476562 12.359375 41.121094 12.359375 40.671875 C 12.359375 40.179688 12.214844 39.804688 11.921875 39.546875 C 11.632812 39.285156 11.210938 39.152344 10.660156 39.148438 Z M 17.15625 46.3125 C 16.359375 46.3125 15.710938 46.050781 15.210938 45.527344 C 14.710938 45.003906 14.457031 44.304688 14.457031 43.425781 L 14.457031 43.242188 C 14.457031 42.65625 14.570312 42.136719 14.792969 41.679688 C 15.015625 41.21875 15.328125 40.859375 15.726562 40.601562 C 16.128906 40.34375 16.5625 40.214844 17.03125 40.214844 C 17.796875 40.214844 18.390625 40.464844 18.816406 40.96875 C 19.238281 41.472656 19.449219 42.195312 19.449219 43.132812 L 19.449219 43.550781 L 15.464844 43.550781 C 15.480469 44.132812 15.648438 44.597656 15.972656 44.957031 C 16.296875 45.3125 16.710938 45.492188 17.210938 45.492188 C 17.566406 45.492188 17.867188 45.417969 18.113281 45.273438 C 18.359375 45.128906 18.574219 44.9375 18.761719 44.699219 L 19.375 45.175781 C 18.882812 45.933594 18.140625 46.3125 17.15625 46.3125 Z M 17.03125 41.039062 C 16.625 41.039062 16.285156 41.1875 16.007812 41.484375 C 15.734375 41.777344 15.5625 42.191406 15.496094 42.726562 L 18.445312 42.726562 L 18.445312 42.648438 C 18.414062 42.136719 18.277344 41.742188 18.03125 41.460938 C 17.785156 41.179688 17.453125 41.039062 17.03125 41.039062 Z M 20.371094 43.289062 L 20.371094 43.214844 C 20.371094 42.3125 20.582031 41.585938 21.011719 41.039062 C 21.4375 40.488281 22 40.214844 22.691406 40.214844 C 23.378906 40.214844 23.925781 40.449219 24.328125 40.921875 L 24.328125 37.851562 L 25.332031 37.851562 L 25.332031 46.203125 L 24.410156 46.203125 L 24.359375 45.574219 C 23.957031 46.066406 23.398438 46.3125 22.679688 46.3125 C 22 46.3125 21.441406 46.035156 21.015625 45.476562 C 20.585938 44.917969 20.371094 44.1875 20.371094 43.289062 Z M 21.375 43.328125 C 21.375 43.996094 21.511719 44.515625 21.789062 44.894531 C 22.0625 45.273438 22.445312 45.460938 22.929688 45.460938 C 23.570312 45.460938 24.035156 45.171875 24.328125 44.601562 L 24.328125 41.898438 C 24.027344 41.34375 23.5625 41.066406 22.941406 41.066406 C 22.449219 41.066406 22.0625 41.257812 21.789062 41.636719 C 21.511719 42.019531 21.375 42.582031 21.375 43.328125 Z M 30.546875 46.203125 L 30.527344 45.621094 C 30.132812 46.082031 29.558594 46.3125 28.804688 46.3125 C 28.175781 46.3125 27.695312 46.132812 27.367188 45.765625 C 27.039062 45.402344 26.875 44.863281 26.871094 44.148438 L 26.871094 40.324219 L 27.875 40.324219 L 27.875 44.121094 C 27.875 45.015625 28.238281 45.460938 28.964844 45.460938 C 29.734375 45.460938 30.246094 45.171875 30.5 44.601562 L 30.5 40.324219 L 31.503906 40.324219 L 31.503906 46.203125 Z M 33.71875 40.324219 L 35.003906 42.46875 L 36.308594 40.324219 L 37.484375 40.324219 L 35.558594 43.230469 L 37.542969 46.203125 L 36.378906 46.203125 L 35.023438 44.003906 L 33.664062 46.203125 L 32.492188 46.203125 L 34.476562 43.230469 L 32.554688 40.324219 Z M 33.71875 40.324219 "/>
</g>
</svg>
