<?xml version="1.0" encoding="UTF-8"?>
<svg xmlns="http://www.w3.org/2000/svg" xmlns:xlink="http://www.w3.org/1999/xlink" width="48pt" height="48pt" viewBox="0 0 48 48" version="1.1">
<g id="surface4635897">
<path style=" stroke:none;fill-rule:nonzero;fill:rgb(49.411765%,34.117648%,76.078433%);fill-opacity:1;" d="M 23.300781 10 C 18.667969 10 14.898438 15.089844 14.898438 21.34375 C 14.898438 24.726562 16.007812 27.761719 17.753906 29.839844 C 17.722656 29.988281 17.699219 30.140625 17.699219 30.300781 C 17.699219 31.460938 18.640625 32.398438 19.800781 32.398438 C 20.960938 32.398438 21.898438 31.460938 21.898438 30.300781 C 21.898438 29.140625 20.960938 28.199219 19.800781 28.199219 C 19.578125 28.199219 19.371094 28.242188 19.171875 28.304688 C 17.84375 26.613281 17 24.121094 17 21.34375 C 17 16.246094 19.824219 12.101562 23.300781 12.101562 C 25.984375 12.101562 28.277344 14.582031 29.183594 18.0625 C 29.96875 18.304688 30.75 18.609375 31.515625 18.976562 C 30.707031 13.855469 27.332031 10 23.300781 10 Z M 23.300781 10 "/>
<path style=" stroke:none;fill-rule:nonzero;fill:rgb(49.411765%,34.117648%,76.078433%);fill-opacity:1;" d="M 32.054688 21.257812 C 29.292969 19.585938 26.191406 18.847656 23.527344 19.1875 C 23.140625 18.710938 22.558594 18.398438 21.898438 18.398438 C 20.738281 18.398438 19.800781 19.339844 19.800781 20.5 C 19.800781 21.660156 20.738281 22.601562 21.898438 22.601562 C 22.789062 22.601562 23.546875 22.042969 23.851562 21.261719 C 26.035156 20.996094 28.621094 21.632812 30.964844 23.054688 C 35.449219 25.773438 37.734375 30.453125 36.0625 33.492188 C 35.484375 34.546875 34.464844 35.292969 33.109375 35.65625 C 31.511719 36.085938 29.605469 35.933594 27.703125 35.285156 C 27.113281 35.828125 26.476562 36.335938 25.792969 36.804688 C 27.582031 37.585938 29.433594 37.996094 31.164062 37.996094 C 32.03125 37.996094 32.871094 37.894531 33.65625 37.683594 C 35.574219 37.171875 37.042969 36.070312 37.902344 34.503906 C 40.109375 30.492188 37.488281 24.550781 32.054688 21.257812 Z M 32.054688 21.257812 "/>
<path style=" stroke:none;fill-rule:nonzero;fill:rgb(49.411765%,34.117648%,76.078433%);fill-opacity:1;" d="M 31.699219 27.496094 C 31.699219 26.339844 30.761719 25.398438 29.601562 25.398438 C 28.441406 25.398438 27.5 26.339844 27.5 27.496094 C 27.5 27.960938 27.660156 28.390625 27.921875 28.738281 C 27.023438 30.699219 25.300781 32.636719 22.976562 34.042969 C 20.269531 35.683594 17.246094 36.285156 14.886719 35.65625 C 13.535156 35.292969 12.515625 34.546875 11.933594 33.492188 C 10.742188 31.328125 11.570312 28.328125 13.761719 25.800781 C 13.535156 25 13.367188 24.164062 13.269531 23.296875 C 9.71875 26.65625 8.292969 31.226562 10.097656 34.503906 C 10.957031 36.070312 12.425781 37.171875 14.34375 37.683594 C 15.128906 37.894531 15.96875 37.996094 16.835938 37.996094 C 19.179688 37.996094 21.742188 37.25 24.066406 35.839844 C 26.75 34.214844 28.742188 31.9375 29.8125 29.566406 C 30.871094 29.460938 31.699219 28.578125 31.699219 27.496094 Z M 31.699219 27.496094 "/>
<path style=" stroke:none;fill-rule:nonzero;fill:rgb(60.784316%,34.901962%,71.372551%);fill-opacity:1;" d="M 18.722656 44.367188 L 17.96875 42.960938 L 17.152344 42.960938 L 17.152344 44.367188 L 16.691406 44.367188 L 16.691406 40.894531 L 17.839844 40.894531 C 18.234375 40.894531 18.535156 40.984375 18.742188 41.160156 C 18.953125 41.339844 19.058594 41.597656 19.058594 41.9375 C 19.058594 42.152344 19 42.34375 18.886719 42.503906 C 18.769531 42.664062 18.605469 42.785156 18.398438 42.863281 L 19.210938 44.335938 L 19.210938 44.367188 Z M 17.152344 41.273438 L 17.152344 42.585938 L 17.855469 42.585938 C 18.082031 42.585938 18.261719 42.527344 18.398438 42.410156 C 18.53125 42.292969 18.601562 42.136719 18.601562 41.9375 C 18.601562 41.722656 18.535156 41.558594 18.40625 41.445312 C 18.28125 41.332031 18.09375 41.273438 17.855469 41.273438 Z M 20.703125 44.414062 C 20.355469 44.414062 20.070312 44.296875 19.847656 44.070312 C 19.628906 43.839844 19.519531 43.53125 19.519531 43.148438 L 19.519531 43.066406 C 19.519531 42.808594 19.570312 42.582031 19.667969 42.382812 C 19.765625 42.179688 19.902344 42.023438 20.078125 41.910156 C 20.253906 41.796875 20.445312 41.738281 20.648438 41.738281 C 20.984375 41.738281 21.246094 41.847656 21.429688 42.070312 C 21.617188 42.289062 21.707031 42.605469 21.707031 43.019531 L 21.707031 43.203125 L 19.960938 43.203125 C 19.96875 43.457031 20.042969 43.664062 20.183594 43.820312 C 20.328125 43.976562 20.507812 44.054688 20.726562 44.054688 C 20.882812 44.054688 21.015625 44.023438 21.121094 43.957031 C 21.230469 43.894531 21.324219 43.808594 21.40625 43.707031 L 21.675781 43.914062 C 21.460938 44.246094 21.136719 44.414062 20.703125 44.414062 Z M 20.648438 42.101562 C 20.472656 42.101562 20.320312 42.164062 20.199219 42.296875 C 20.078125 42.425781 20.003906 42.605469 19.976562 42.839844 L 21.269531 42.839844 L 21.269531 42.808594 C 21.257812 42.582031 21.195312 42.410156 21.085938 42.285156 C 20.980469 42.160156 20.832031 42.101562 20.648438 42.101562 Z M 22.113281 43.089844 L 22.113281 43.054688 C 22.113281 42.660156 22.207031 42.339844 22.394531 42.101562 C 22.582031 41.859375 22.828125 41.738281 23.132812 41.738281 C 23.433594 41.738281 23.671875 41.839844 23.847656 42.046875 L 23.847656 40.703125 L 24.289062 40.703125 L 24.289062 44.367188 L 23.886719 44.367188 L 23.863281 44.089844 C 23.6875 44.304688 23.441406 44.414062 23.128906 44.414062 C 22.828125 44.414062 22.582031 44.289062 22.394531 44.046875 C 22.207031 43.800781 22.113281 43.480469 22.113281 43.089844 Z M 22.554688 43.105469 C 22.554688 43.398438 22.613281 43.625 22.734375 43.792969 C 22.855469 43.957031 23.023438 44.039062 23.238281 44.039062 C 23.515625 44.039062 23.71875 43.914062 23.847656 43.664062 L 23.847656 42.476562 C 23.714844 42.234375 23.515625 42.113281 23.242188 42.113281 C 23.023438 42.113281 22.855469 42.195312 22.734375 42.363281 C 22.613281 42.53125 22.554688 42.777344 22.554688 43.105469 Z M 26.578125 44.367188 L 26.566406 44.109375 C 26.394531 44.3125 26.144531 44.414062 25.8125 44.414062 C 25.535156 44.414062 25.328125 44.332031 25.183594 44.175781 C 25.039062 44.015625 24.964844 43.777344 24.964844 43.464844 L 24.964844 41.785156 L 25.40625 41.785156 L 25.40625 43.453125 C 25.40625 43.84375 25.566406 44.039062 25.882812 44.039062 C 26.21875 44.039062 26.445312 43.914062 26.554688 43.664062 L 26.554688 41.785156 L 26.996094 41.785156 L 26.996094 44.367188 Z M 27.96875 41.785156 L 28.53125 42.726562 L 29.105469 41.785156 L 29.621094 41.785156 L 28.773438 43.0625 L 29.644531 44.367188 L 29.136719 44.367188 L 28.539062 43.402344 L 27.941406 44.367188 L 27.429688 44.367188 L 28.300781 43.0625 L 27.457031 41.785156 Z M 27.96875 41.785156 "/>
</g>
</svg>
