<?xml version="1.0" encoding="UTF-8"?>
<svg xmlns="http://www.w3.org/2000/svg" xmlns:xlink="http://www.w3.org/1999/xlink" width="64pt" height="64pt" viewBox="0 0 64 64" version="1.1">
<g id="surface4634968">
<path style=" stroke:none;fill-rule:nonzero;fill:rgb(67.450982%,89.019608%,100%);fill-opacity:1;" d="M 15.25 21.949219 L 32 12.570312 L 49.421875 21.949219 L 32 31.328125 Z M 15.25 21.949219 "/>
<path style=" stroke:none;fill-rule:nonzero;fill:rgb(67.450982%,89.019608%,100%);fill-opacity:1;" d="M 14.578125 21.949219 L 14.578125 42.050781 L 32 52.101562 L 32 31.328125 Z M 14.578125 21.949219 "/>
<path style=" stroke:none;fill-rule:nonzero;fill:rgb(48.235294%,74.509805%,92.156863%);fill-opacity:1;" d="M 21.949219 25.96875 L 32 20.609375 L 42.050781 25.96875 L 32 31.328125 Z M 21.949219 25.96875 "/>
<path style=" stroke:none;fill-rule:nonzero;fill:rgb(67.450982%,89.019608%,100%);fill-opacity:1;" d="M 32 52.101562 L 50.089844 42.050781 L 50.089844 21.949219 L 32 31.328125 Z M 32 52.101562 "/>
<path style=" stroke:none;fill-rule:nonzero;fill:rgb(48.235294%,74.509805%,92.156863%);fill-opacity:1;" d="M 21.949219 25.96875 L 21.949219 38.03125 L 32 43.390625 L 32 31.328125 Z M 21.949219 25.96875 "/>
<path style=" stroke:none;fill-rule:nonzero;fill:rgb(48.235294%,74.509805%,92.156863%);fill-opacity:1;" d="M 32 43.390625 L 42.050781 38.03125 L 42.050781 25.96875 L 32 31.328125 Z M 32 43.390625 "/>
<path style=" stroke:none;fill-rule:nonzero;fill:rgb(89.019608%,94.901961%,100%);fill-opacity:1;" d="M 21.949219 38.03125 L 14.578125 42.050781 L 14.578125 21.949219 L 21.949219 25.96875 Z M 21.949219 38.03125 "/>
<path style=" stroke:none;fill-rule:nonzero;fill:rgb(55.29412%,42.352942%,62.352943%);fill-opacity:1;" d="M 32 32 C 31.890625 32 31.78125 31.972656 31.683594 31.921875 L 21.632812 26.5625 C 21.417969 26.445312 21.28125 26.21875 21.28125 25.96875 C 21.28125 25.722656 21.417969 25.496094 21.632812 25.378906 L 31.683594 20.019531 C 31.882812 19.914062 32.117188 19.914062 32.316406 20.019531 L 42.363281 25.378906 C 42.582031 25.496094 42.71875 25.722656 42.71875 25.96875 C 42.71875 26.21875 42.582031 26.445312 42.367188 26.5625 L 32.316406 31.921875 C 32.21875 31.972656 32.109375 32 32 32 Z M 23.375 25.96875 L 32 30.570312 L 40.625 25.96875 L 32 21.371094 Z M 23.375 25.96875 "/>
<path style=" stroke:none;fill-rule:nonzero;fill:rgb(55.29412%,42.352942%,62.352943%);fill-opacity:1;" d="M 21.949219 28.648438 C 21.582031 28.648438 21.28125 28.351562 21.28125 27.980469 L 21.28125 26.367188 L 14.257812 22.539062 C 14.042969 22.421875 13.910156 22.195312 13.910156 21.949219 C 13.910156 21.703125 14.046875 21.476562 14.261719 21.359375 L 31.683594 11.980469 C 32.007812 11.804688 32.414062 11.925781 32.589844 12.253906 C 32.765625 12.578125 32.644531 12.984375 32.316406 13.160156 L 15.988281 21.953125 L 22.269531 25.382812 C 22.484375 25.5 22.621094 25.726562 22.621094 25.96875 L 22.621094 27.980469 C 22.621094 28.351562 22.320312 28.648438 21.949219 28.648438 Z M 21.949219 28.648438 "/>
<path style=" stroke:none;fill-rule:nonzero;fill:rgb(55.29412%,42.352942%,62.352943%);fill-opacity:1;" d="M 21.949219 34.011719 C 21.582031 34.011719 21.28125 33.710938 21.28125 33.339844 L 21.28125 30.660156 C 21.28125 30.289062 21.582031 29.988281 21.949219 29.988281 C 22.320312 29.988281 22.621094 30.289062 22.621094 30.660156 L 22.621094 33.339844 C 22.621094 33.710938 22.320312 34.011719 21.949219 34.011719 Z M 21.949219 34.011719 "/>
<path style=" stroke:none;fill-rule:nonzero;fill:rgb(55.29412%,42.352942%,62.352943%);fill-opacity:1;" d="M 32 44.058594 C 31.890625 44.058594 31.785156 44.035156 31.683594 43.980469 L 21.632812 38.621094 C 21.417969 38.503906 21.28125 38.277344 21.28125 38.03125 L 21.28125 36.019531 C 21.28125 35.648438 21.582031 35.351562 21.949219 35.351562 C 22.320312 35.351562 22.621094 35.648438 22.621094 36.019531 L 22.621094 37.628906 L 31.328125 42.273438 L 31.328125 31.328125 C 31.328125 30.960938 31.628906 30.660156 32 30.660156 C 32.371094 30.660156 32.671875 30.960938 32.671875 31.328125 L 32.671875 43.390625 C 32.671875 43.625 32.546875 43.84375 32.34375 43.964844 C 32.238281 44.027344 32.121094 44.058594 32 44.058594 Z M 32 44.058594 "/>
<path style=" stroke:none;fill-rule:nonzero;fill:rgb(52.156866%,79.607844%,97.254902%);fill-opacity:1;" d="M 50.089844 42.050781 L 32 51.429688 L 32 43.390625 L 42.050781 38.03125 Z M 50.089844 42.050781 "/>
<path style=" stroke:none;fill-rule:nonzero;fill:rgb(55.29412%,42.352942%,62.352943%);fill-opacity:1;" d="M 32 52.769531 C 31.882812 52.769531 31.765625 52.738281 31.660156 52.675781 C 31.457031 52.558594 31.328125 52.335938 31.328125 52.101562 L 31.328125 43.390625 C 31.328125 43.019531 31.628906 42.71875 32 42.71875 C 32.371094 42.71875 32.671875 43.019531 32.671875 43.390625 L 32.671875 50.960938 L 49.765625 41.464844 C 50.089844 41.285156 50.496094 41.402344 50.675781 41.726562 C 50.855469 42.046875 50.738281 42.457031 50.414062 42.636719 L 32.324219 52.6875 C 32.222656 52.742188 32.113281 52.769531 32 52.769531 Z M 32 52.769531 "/>
<path style=" stroke:none;fill-rule:nonzero;fill:rgb(55.29412%,42.352942%,62.352943%);fill-opacity:1;" d="M 42.050781 38.699219 C 41.679688 38.699219 41.378906 38.402344 41.378906 38.03125 L 41.378906 25.96875 C 41.378906 25.714844 41.523438 25.484375 41.75 25.371094 L 48.613281 21.9375 L 32.671875 13.671875 L 32.671875 20.609375 C 32.671875 20.980469 32.371094 21.28125 32 21.28125 C 31.628906 21.28125 31.328125 20.980469 31.328125 20.609375 L 31.328125 12.570312 C 31.328125 12.335938 31.453125 12.117188 31.652344 11.996094 C 31.851562 11.875 32.101562 11.867188 32.308594 11.976562 L 50.398438 21.355469 C 50.621094 21.472656 50.761719 21.703125 50.761719 21.957031 C 50.757812 22.207031 50.617188 22.4375 50.390625 22.550781 L 42.71875 26.382812 L 42.71875 38.03125 C 42.71875 38.402344 42.417969 38.699219 42.050781 38.699219 Z M 42.050781 38.699219 "/>
<path style=" stroke:none;fill-rule:nonzero;fill:rgb(55.29412%,42.352942%,62.352943%);fill-opacity:1;" d="M 40.132812 40.480469 C 39.894531 40.480469 39.664062 40.355469 39.542969 40.128906 L 38.910156 38.945312 C 38.734375 38.617188 38.859375 38.214844 39.1875 38.039062 C 39.515625 37.863281 39.917969 37.988281 40.09375 38.3125 L 40.722656 39.496094 C 40.898438 39.824219 40.773438 40.230469 40.449219 40.402344 C 40.347656 40.457031 40.238281 40.480469 40.132812 40.480469 Z M 40.132812 40.480469 "/>
<path style=" stroke:none;fill-rule:nonzero;fill:rgb(55.29412%,42.352942%,62.352943%);fill-opacity:1;" d="M 37.339844 41.972656 C 37.101562 41.972656 36.871094 41.84375 36.75 41.617188 L 36.117188 40.433594 C 35.945312 40.109375 36.066406 39.699219 36.394531 39.527344 C 36.722656 39.351562 37.125 39.476562 37.300781 39.804688 L 37.933594 40.984375 C 38.105469 41.3125 37.984375 41.71875 37.65625 41.894531 C 37.554688 41.945312 37.445312 41.972656 37.339844 41.972656 Z M 37.339844 41.972656 "/>
<path style=" stroke:none;fill-rule:nonzero;fill:rgb(55.29412%,42.352942%,62.352943%);fill-opacity:1;" d="M 34.550781 43.460938 C 34.308594 43.460938 34.078125 43.332031 33.957031 43.105469 L 33.328125 41.921875 C 33.152344 41.597656 33.277344 41.191406 33.601562 41.015625 C 33.929688 40.839844 34.335938 40.964844 34.507812 41.292969 L 35.140625 42.472656 C 35.316406 42.800781 35.191406 43.207031 34.863281 43.378906 C 34.761719 43.433594 34.65625 43.460938 34.550781 43.460938 Z M 34.550781 43.460938 "/>
<path style=" stroke:none;fill-rule:nonzero;fill:rgb(55.29412%,42.352942%,62.352943%);fill-opacity:1;" d="M 50.089844 42.71875 C 49.988281 42.71875 49.886719 42.695312 49.789062 42.648438 L 41.75 38.628906 C 41.417969 38.464844 41.285156 38.0625 41.449219 37.730469 C 41.617188 37.398438 42.019531 37.265625 42.351562 37.429688 L 49.421875 40.964844 L 49.421875 21.949219 C 49.421875 21.578125 49.71875 21.28125 50.089844 21.28125 C 50.460938 21.28125 50.761719 21.578125 50.761719 21.949219 L 50.761719 42.050781 C 50.761719 42.28125 50.640625 42.496094 50.441406 42.621094 C 50.335938 42.6875 50.210938 42.71875 50.089844 42.71875 Z M 50.089844 42.71875 "/>
<path style=" stroke:none;fill-rule:nonzero;fill:rgb(55.29412%,42.352942%,62.352943%);fill-opacity:1;" d="M 14.578125 42.71875 C 14.460938 42.71875 14.34375 42.6875 14.238281 42.625 C 14.035156 42.503906 13.910156 42.285156 13.910156 42.050781 L 13.910156 21.949219 C 13.910156 21.578125 14.210938 21.28125 14.578125 21.28125 C 14.949219 21.28125 15.25 21.578125 15.25 21.949219 L 15.25 40.921875 L 21.628906 37.441406 C 21.957031 37.265625 22.363281 37.386719 22.539062 37.710938 C 22.714844 38.035156 22.597656 38.441406 22.269531 38.617188 L 14.902344 42.636719 C 14.800781 42.691406 14.691406 42.71875 14.578125 42.71875 Z M 14.578125 42.71875 "/>
<path style=" stroke:none;fill-rule:nonzero;fill:rgb(55.29412%,42.352942%,62.352943%);fill-opacity:1;" d="M 32 52.769531 C 31.886719 52.769531 31.769531 52.742188 31.664062 52.679688 L 14.246094 42.628906 C 13.925781 42.445312 13.816406 42.035156 14 41.714844 C 14.183594 41.394531 14.59375 41.285156 14.914062 41.46875 L 32.335938 51.519531 C 32.65625 51.703125 32.765625 52.113281 32.582031 52.433594 C 32.457031 52.648438 32.230469 52.769531 32 52.769531 Z M 32 52.769531 "/>
<path style=" stroke:none;fill-rule:nonzero;fill:rgb(60.784316%,34.901962%,71.372551%);fill-opacity:1;" d="M 18.851562 52.957031 L 19.550781 55.992188 L 19.636719 56.574219 L 19.757812 56.050781 L 20.632812 52.957031 L 21.128906 52.957031 L 21.984375 56.050781 L 22.105469 56.585938 L 22.199219 55.988281 L 22.886719 52.957031 L 23.472656 52.957031 L 22.398438 57.386719 L 21.867188 57.386719 L 20.957031 54.160156 L 20.882812 53.820312 L 20.8125 54.160156 L 19.871094 57.386719 L 19.335938 57.386719 L 18.265625 52.957031 Z M 25.304688 57.449219 C 24.859375 57.449219 24.496094 57.300781 24.21875 57.007812 C 23.9375 56.714844 23.796875 56.324219 23.796875 55.832031 L 23.796875 55.730469 C 23.796875 55.402344 23.859375 55.109375 23.984375 54.855469 C 24.109375 54.597656 24.285156 54.394531 24.507812 54.25 C 24.734375 54.105469 24.976562 54.035156 25.238281 54.035156 C 25.664062 54.035156 25.996094 54.175781 26.234375 54.457031 C 26.472656 54.738281 26.589844 55.140625 26.589844 55.667969 L 26.589844 55.902344 L 24.363281 55.902344 C 24.367188 56.226562 24.464844 56.488281 24.644531 56.691406 C 24.828125 56.890625 25.058594 56.988281 25.335938 56.988281 C 25.535156 56.988281 25.703125 56.949219 25.84375 56.867188 C 25.980469 56.785156 26.101562 56.679688 26.203125 56.546875 L 26.546875 56.8125 C 26.273438 57.234375 25.859375 57.449219 25.304688 57.449219 Z M 25.238281 54.496094 C 25.007812 54.496094 24.820312 54.578125 24.664062 54.746094 C 24.511719 54.910156 24.414062 55.140625 24.378906 55.441406 L 26.027344 55.441406 L 26.027344 55.398438 C 26.011719 55.113281 25.9375 54.890625 25.796875 54.734375 C 25.660156 54.574219 25.472656 54.496094 25.238281 54.496094 Z M 30.03125 55.730469 L 30.03125 55.777344 C 30.03125 56.28125 29.914062 56.683594 29.683594 56.992188 C 29.453125 57.296875 29.140625 57.449219 28.75 57.449219 C 28.335938 57.449219 28.015625 57.300781 27.785156 57.007812 L 27.757812 57.386719 L 27.242188 57.386719 L 27.242188 52.714844 L 27.804688 52.714844 L 27.804688 54.457031 C 28.03125 54.175781 28.347656 54.035156 28.746094 54.035156 C 29.144531 54.035156 29.460938 54.1875 29.6875 54.488281 C 29.917969 54.789062 30.03125 55.203125 30.03125 55.730469 Z M 29.46875 55.714844 C 29.46875 55.332031 29.394531 55.035156 29.246094 54.824219 C 29.097656 54.617188 28.882812 54.511719 28.605469 54.511719 C 28.234375 54.511719 27.96875 54.683594 27.804688 55.03125 L 27.804688 56.453125 C 27.976562 56.796875 28.246094 56.972656 28.613281 56.972656 C 28.882812 56.972656 29.089844 56.867188 29.242188 56.65625 C 29.394531 56.449219 29.46875 56.132812 29.46875 55.714844 Z M 33.519531 55.726562 L 33.519531 55.777344 C 33.519531 56.277344 33.40625 56.683594 33.175781 56.988281 C 32.949219 57.292969 32.636719 57.449219 32.246094 57.449219 C 31.847656 57.449219 31.53125 57.320312 31.300781 57.070312 L 31.300781 58.652344 L 30.738281 58.652344 L 30.738281 54.09375 L 31.253906 54.09375 L 31.28125 54.460938 C 31.507812 54.175781 31.828125 54.035156 32.238281 54.035156 C 32.632812 54.035156 32.945312 54.183594 33.175781 54.480469 C 33.40625 54.78125 33.519531 55.195312 33.519531 55.726562 Z M 32.957031 55.714844 C 32.957031 55.34375 32.878906 55.050781 32.722656 54.835938 C 32.5625 54.617188 32.347656 54.511719 32.070312 54.511719 C 31.726562 54.511719 31.472656 54.660156 31.300781 54.964844 L 31.300781 56.539062 C 31.46875 56.839844 31.726562 56.988281 32.074219 56.988281 C 32.34375 56.988281 32.558594 56.882812 32.71875 56.667969 C 32.878906 56.453125 32.957031 56.136719 32.957031 55.714844 Z M 36.859375 57.386719 L 36.269531 57.386719 C 36.238281 57.324219 36.210938 57.207031 36.1875 57.042969 C 35.925781 57.3125 35.613281 57.449219 35.25 57.449219 C 34.925781 57.449219 34.660156 57.355469 34.453125 57.171875 C 34.246094 56.988281 34.140625 56.757812 34.140625 56.476562 C 34.140625 56.132812 34.273438 55.863281 34.535156 55.675781 C 34.792969 55.484375 35.160156 55.390625 35.632812 55.390625 L 36.179688 55.390625 L 36.179688 55.132812 C 36.179688 54.933594 36.121094 54.777344 36.003906 54.664062 C 35.886719 54.546875 35.710938 54.488281 35.484375 54.488281 C 35.28125 54.488281 35.113281 54.539062 34.980469 54.640625 C 34.84375 54.742188 34.773438 54.863281 34.773438 55.007812 L 34.210938 55.007812 C 34.210938 54.84375 34.265625 54.683594 34.382812 54.53125 C 34.5 54.378906 34.65625 54.257812 34.855469 54.167969 C 35.058594 54.078125 35.277344 54.035156 35.519531 54.035156 C 35.898438 54.035156 36.195312 54.128906 36.40625 54.320312 C 36.625 54.507812 36.734375 54.769531 36.746094 55.101562 L 36.746094 56.617188 C 36.746094 56.917969 36.78125 57.160156 36.859375 57.335938 Z M 35.332031 56.957031 C 35.511719 56.957031 35.679688 56.914062 35.835938 56.820312 C 35.996094 56.730469 36.109375 56.613281 36.179688 56.464844 L 36.179688 55.789062 L 35.738281 55.789062 C 35.050781 55.789062 34.707031 55.992188 34.707031 56.394531 C 34.707031 56.570312 34.765625 56.710938 34.882812 56.808594 C 35 56.910156 35.148438 56.957031 35.332031 56.957031 Z M 38.945312 56.988281 C 39.148438 56.988281 39.324219 56.929688 39.472656 56.808594 C 39.625 56.683594 39.707031 56.535156 39.722656 56.351562 L 40.253906 56.351562 C 40.246094 56.539062 40.179688 56.71875 40.058594 56.890625 C 39.941406 57.058594 39.78125 57.195312 39.582031 57.296875 C 39.382812 57.398438 39.171875 57.449219 38.945312 57.449219 C 38.5 57.449219 38.140625 57.296875 37.875 57 C 37.613281 56.699219 37.480469 56.289062 37.480469 55.773438 L 37.480469 55.675781 C 37.480469 55.355469 37.539062 55.070312 37.65625 54.824219 C 37.773438 54.574219 37.945312 54.378906 38.164062 54.242188 C 38.382812 54.105469 38.640625 54.035156 38.945312 54.035156 C 39.3125 54.035156 39.617188 54.144531 39.863281 54.367188 C 40.109375 54.585938 40.238281 54.875 40.253906 55.226562 L 39.722656 55.226562 C 39.707031 55.011719 39.625 54.839844 39.480469 54.703125 C 39.335938 54.566406 39.15625 54.496094 38.945312 54.496094 C 38.65625 54.496094 38.4375 54.597656 38.277344 54.804688 C 38.121094 55.011719 38.042969 55.308594 38.042969 55.699219 L 38.042969 55.804688 C 38.042969 56.183594 38.121094 56.476562 38.277344 56.683594 C 38.433594 56.886719 38.65625 56.988281 38.945312 56.988281 Z M 42.953125 57.386719 L 41.808594 55.863281 L 41.453125 56.230469 L 41.453125 57.386719 L 40.890625 57.386719 L 40.890625 52.714844 L 41.453125 52.714844 L 41.453125 55.539062 L 41.753906 55.179688 L 42.78125 54.09375 L 43.464844 54.09375 L 42.183594 55.46875 L 43.617188 57.386719 Z M 42.953125 57.386719 "/>
</g>
</svg>
