<?xml version="1.0" encoding="UTF-8"?>
<svg xmlns="http://www.w3.org/2000/svg" xmlns:xlink="http://www.w3.org/1999/xlink" width="64pt" height="64pt" viewBox="0 0 64 64" version="1.1">
<g id="surface4642251">
<path style=" stroke:none;fill-rule:nonzero;fill:rgb(67.450982%,89.019608%,100%);fill-opacity:1;" d="M 14.5 21.5 L 32 11.699219 L 50.199219 21.5 L 32 31.300781 Z M 14.5 21.5 "/>
<path style=" stroke:none;fill-rule:nonzero;fill:rgb(67.450982%,89.019608%,100%);fill-opacity:1;" d="M 13.800781 21.5 L 13.800781 42.5 L 32 53 L 32 31.300781 Z M 13.800781 21.5 "/>
<path style=" stroke:none;fill-rule:nonzero;fill:rgb(48.235294%,74.509805%,92.156863%);fill-opacity:1;" d="M 21.5 25.699219 L 32 20.101562 L 42.5 25.699219 L 32 31.300781 Z M 21.5 25.699219 "/>
<path style=" stroke:none;fill-rule:nonzero;fill:rgb(67.450982%,89.019608%,100%);fill-opacity:1;" d="M 32 53 L 50.898438 42.5 L 50.898438 21.5 L 32 31.300781 Z M 32 53 "/>
<path style=" stroke:none;fill-rule:nonzero;fill:rgb(48.235294%,74.509805%,92.156863%);fill-opacity:1;" d="M 21.5 25.699219 L 21.5 38.300781 L 32 43.898438 L 32 31.300781 Z M 21.5 25.699219 "/>
<path style=" stroke:none;fill-rule:nonzero;fill:rgb(48.235294%,74.509805%,92.156863%);fill-opacity:1;" d="M 32 43.898438 L 42.5 38.300781 L 42.5 25.699219 L 32 31.300781 Z M 32 43.898438 "/>
<path style=" stroke:none;fill-rule:nonzero;fill:rgb(89.019608%,94.901961%,100%);fill-opacity:1;" d="M 21.5 38.300781 L 13.800781 42.5 L 13.800781 21.5 L 21.5 25.699219 Z M 21.5 38.300781 "/>
<path style=" stroke:none;fill-rule:nonzero;fill:rgb(55.29412%,42.352942%,62.352943%);fill-opacity:1;" d="M 32 32 C 31.886719 32 31.773438 31.972656 31.671875 31.917969 L 21.171875 26.316406 C 20.941406 26.195312 20.800781 25.957031 20.800781 25.699219 C 20.800781 25.441406 20.941406 25.203125 21.171875 25.082031 L 31.671875 19.480469 C 31.875 19.371094 32.125 19.371094 32.328125 19.480469 L 42.828125 25.082031 C 43.058594 25.203125 43.199219 25.441406 43.199219 25.699219 C 43.199219 25.957031 43.058594 26.195312 42.828125 26.316406 L 32.328125 31.917969 C 32.226562 31.972656 32.113281 32 32 32 Z M 22.988281 25.699219 L 32 30.507812 L 41.011719 25.699219 L 32 20.894531 Z M 22.988281 25.699219 "/>
<path style=" stroke:none;fill-rule:nonzero;fill:rgb(55.29412%,42.352942%,62.352943%);fill-opacity:1;" d="M 21.5 28.5 C 21.113281 28.5 20.800781 28.1875 20.800781 27.800781 L 20.800781 26.117188 L 13.464844 22.113281 C 13.238281 21.992188 13.097656 21.753906 13.101562 21.496094 C 13.101562 21.242188 13.242188 21.003906 13.46875 20.882812 L 31.667969 11.082031 C 32.007812 10.898438 32.433594 11.027344 32.617188 11.367188 C 32.800781 11.707031 32.671875 12.132812 32.332031 12.316406 L 15.269531 21.503906 L 21.835938 25.085938 C 22.058594 25.207031 22.199219 25.445312 22.199219 25.699219 L 22.199219 27.800781 C 22.199219 28.1875 21.886719 28.5 21.5 28.5 Z M 21.5 28.5 "/>
<path style=" stroke:none;fill-rule:nonzero;fill:rgb(55.29412%,42.352942%,62.352943%);fill-opacity:1;" d="M 21.5 34.101562 C 21.113281 34.101562 20.800781 33.785156 20.800781 33.398438 L 20.800781 30.601562 C 20.800781 30.214844 21.113281 29.898438 21.5 29.898438 C 21.886719 29.898438 22.199219 30.214844 22.199219 30.601562 L 22.199219 33.398438 C 22.199219 33.785156 21.886719 34.101562 21.5 34.101562 Z M 21.5 34.101562 "/>
<path style=" stroke:none;fill-rule:nonzero;fill:rgb(55.29412%,42.352942%,62.352943%);fill-opacity:1;" d="M 32 44.601562 C 31.886719 44.601562 31.773438 44.574219 31.671875 44.519531 L 21.171875 38.917969 C 20.941406 38.796875 20.800781 38.558594 20.800781 38.300781 L 20.800781 36.199219 C 20.800781 35.8125 21.113281 35.5 21.5 35.5 C 21.886719 35.5 22.199219 35.8125 22.199219 36.199219 L 22.199219 37.878906 L 31.300781 42.734375 L 31.300781 31.300781 C 31.300781 30.914062 31.613281 30.601562 32 30.601562 C 32.386719 30.601562 32.699219 30.914062 32.699219 31.300781 L 32.699219 43.898438 C 32.699219 44.144531 32.570312 44.375 32.359375 44.5 C 32.25 44.566406 32.125 44.601562 32 44.601562 Z M 32 44.601562 "/>
<path style=" stroke:none;fill-rule:nonzero;fill:rgb(52.156866%,79.607844%,97.254902%);fill-opacity:1;" d="M 50.898438 42.5 L 32 52.300781 L 32 43.898438 L 42.5 38.300781 Z M 50.898438 42.5 "/>
<path style=" stroke:none;fill-rule:nonzero;fill:rgb(55.29412%,42.352942%,62.352943%);fill-opacity:1;" d="M 32 53.699219 C 31.878906 53.699219 31.753906 53.667969 31.644531 53.601562 C 31.429688 53.476562 31.300781 53.246094 31.300781 53 L 31.300781 43.898438 C 31.300781 43.511719 31.613281 43.199219 32 43.199219 C 32.386719 43.199219 32.699219 43.511719 32.699219 43.898438 L 32.699219 51.8125 L 50.558594 41.886719 C 50.898438 41.699219 51.324219 41.824219 51.511719 42.160156 C 51.699219 42.496094 51.578125 42.925781 51.238281 43.113281 L 32.339844 53.613281 C 32.234375 53.671875 32.117188 53.699219 32 53.699219 Z M 32 53.699219 "/>
<path style=" stroke:none;fill-rule:nonzero;fill:rgb(55.29412%,42.352942%,62.352943%);fill-opacity:1;" d="M 42.5 39 C 42.113281 39 41.800781 38.6875 41.800781 38.300781 L 41.800781 25.699219 C 41.800781 25.433594 41.949219 25.191406 42.1875 25.074219 L 49.359375 21.488281 L 32.699219 12.851562 L 32.699219 20.101562 C 32.699219 20.488281 32.386719 20.800781 32 20.800781 C 31.613281 20.800781 31.300781 20.488281 31.300781 20.101562 L 31.300781 11.699219 C 31.300781 11.453125 31.425781 11.230469 31.636719 11.101562 C 31.84375 10.976562 32.105469 10.964844 32.320312 11.078125 L 51.222656 20.878906 C 51.457031 21 51.601562 21.242188 51.601562 21.507812 C 51.597656 21.769531 51.449219 22.007812 51.214844 22.128906 L 43.199219 26.132812 L 43.199219 38.300781 C 43.199219 38.6875 42.886719 39 42.5 39 Z M 42.5 39 "/>
<path style=" stroke:none;fill-rule:nonzero;fill:rgb(55.29412%,42.352942%,62.352943%);fill-opacity:1;" d="M 40.496094 40.863281 C 40.246094 40.863281 40.003906 40.726562 39.878906 40.492188 L 39.21875 39.257812 C 39.039062 38.914062 39.167969 38.492188 39.507812 38.308594 C 39.851562 38.125 40.273438 38.257812 40.457031 38.597656 L 41.113281 39.832031 C 41.296875 40.171875 41.167969 40.597656 40.828125 40.78125 C 40.71875 40.835938 40.609375 40.863281 40.496094 40.863281 Z M 40.496094 40.863281 "/>
<path style=" stroke:none;fill-rule:nonzero;fill:rgb(55.29412%,42.352942%,62.352943%);fill-opacity:1;" d="M 37.582031 42.417969 C 37.332031 42.417969 37.089844 42.285156 36.960938 42.046875 L 36.304688 40.8125 C 36.121094 40.46875 36.25 40.046875 36.589844 39.863281 C 36.933594 39.683594 37.355469 39.8125 37.539062 40.152344 L 38.199219 41.386719 C 38.378906 41.730469 38.25 42.152344 37.910156 42.335938 C 37.804688 42.390625 37.691406 42.417969 37.582031 42.417969 Z M 37.582031 42.417969 "/>
<path style=" stroke:none;fill-rule:nonzero;fill:rgb(55.29412%,42.352942%,62.352943%);fill-opacity:1;" d="M 34.664062 43.972656 C 34.414062 43.972656 34.171875 43.839844 34.046875 43.601562 L 33.386719 42.367188 C 33.203125 42.027344 33.332031 41.601562 33.675781 41.417969 C 34.015625 41.238281 34.441406 41.367188 34.621094 41.707031 L 35.28125 42.941406 C 35.464844 43.285156 35.332031 43.707031 34.992188 43.890625 C 34.886719 43.945312 34.773438 43.972656 34.664062 43.972656 Z M 34.664062 43.972656 "/>
<path style=" stroke:none;fill-rule:nonzero;fill:rgb(55.29412%,42.352942%,62.352943%);fill-opacity:1;" d="M 50.898438 43.199219 C 50.792969 43.199219 50.6875 43.175781 50.585938 43.125 L 42.1875 38.925781 C 41.839844 38.753906 41.703125 38.332031 41.875 37.988281 C 42.046875 37.640625 42.46875 37.503906 42.8125 37.675781 L 50.199219 41.367188 L 50.199219 21.5 C 50.199219 21.113281 50.511719 20.800781 50.898438 20.800781 C 51.285156 20.800781 51.601562 21.113281 51.601562 21.5 L 51.601562 42.5 C 51.601562 42.742188 51.472656 42.96875 51.269531 43.09375 C 51.15625 43.164062 51.027344 43.199219 50.898438 43.199219 Z M 50.898438 43.199219 "/>
<path style=" stroke:none;fill-rule:nonzero;fill:rgb(55.29412%,42.352942%,62.352943%);fill-opacity:1;" d="M 13.800781 43.199219 C 13.675781 43.199219 13.550781 43.167969 13.441406 43.101562 C 13.230469 42.976562 13.101562 42.746094 13.101562 42.5 L 13.101562 21.5 C 13.101562 21.113281 13.414062 20.800781 13.800781 20.800781 C 14.1875 20.800781 14.5 21.113281 14.5 21.5 L 14.5 41.320312 L 21.164062 37.683594 C 21.503906 37.5 21.929688 37.625 22.113281 37.964844 C 22.300781 38.304688 22.175781 38.730469 21.835938 38.914062 L 14.136719 43.113281 C 14.03125 43.171875 13.914062 43.199219 13.800781 43.199219 Z M 13.800781 43.199219 "/>
<path style=" stroke:none;fill-rule:nonzero;fill:rgb(55.29412%,42.352942%,62.352943%);fill-opacity:1;" d="M 32 53.699219 C 31.882812 53.699219 31.761719 53.667969 31.648438 53.605469 L 13.449219 43.105469 C 13.117188 42.914062 13 42.484375 13.195312 42.148438 C 13.386719 41.816406 13.816406 41.699219 14.148438 41.894531 L 32.351562 52.394531 C 32.683594 52.585938 32.800781 53.015625 32.605469 53.351562 C 32.476562 53.574219 32.242188 53.699219 32 53.699219 Z M 32 53.699219 "/>
<path style=" stroke:none;fill-rule:nonzero;fill:rgb(60.784316%,34.901962%,71.372551%);fill-opacity:1;" d="M 7.976562 51.757812 L 9.382812 57.84375 L 9.554688 59.015625 L 9.804688 57.960938 L 11.5625 51.757812 L 12.550781 51.757812 L 14.265625 57.960938 L 14.511719 59.035156 L 14.699219 57.839844 L 16.078125 51.757812 L 17.257812 51.757812 L 15.101562 60.648438 L 14.035156 60.648438 L 12.203125 54.167969 L 12.0625 53.492188 L 11.921875 54.167969 L 10.023438 60.648438 L 8.957031 60.648438 L 6.804688 51.757812 Z M 20.929688 60.769531 C 20.035156 60.769531 19.308594 60.472656 18.746094 59.886719 C 18.183594 59.300781 17.90625 58.511719 17.90625 57.527344 L 17.90625 57.320312 C 17.90625 56.664062 18.03125 56.078125 18.28125 55.566406 C 18.53125 55.050781 18.878906 54.644531 19.328125 54.355469 C 19.777344 54.066406 20.265625 53.917969 20.792969 53.917969 C 21.652344 53.917969 22.316406 54.203125 22.792969 54.769531 C 23.269531 55.332031 23.507812 56.144531 23.507812 57.199219 L 23.507812 57.667969 L 19.035156 57.667969 C 19.050781 58.316406 19.242188 58.84375 19.605469 59.246094 C 19.96875 59.644531 20.429688 59.847656 20.992188 59.847656 C 21.394531 59.847656 21.730469 59.765625 22.007812 59.601562 C 22.28125 59.4375 22.523438 59.222656 22.734375 58.957031 L 23.425781 59.492188 C 22.871094 60.34375 22.039062 60.769531 20.929688 60.769531 Z M 20.792969 54.847656 C 20.335938 54.847656 19.953125 55.011719 19.644531 55.34375 C 19.335938 55.675781 19.144531 56.140625 19.070312 56.738281 L 22.378906 56.738281 L 22.378906 56.652344 C 22.347656 56.082031 22.191406 55.636719 21.914062 55.320312 C 21.636719 55.003906 21.265625 54.847656 20.792969 54.847656 Z M 30.40625 57.320312 L 30.40625 57.417969 C 30.40625 58.425781 30.175781 59.238281 29.710938 59.847656 C 29.246094 60.460938 28.625 60.769531 27.84375 60.769531 C 27.007812 60.769531 26.363281 60.472656 25.910156 59.882812 L 25.851562 60.648438 L 24.816406 60.648438 L 24.816406 51.269531 L 25.945312 51.269531 L 25.945312 54.769531 C 26.398438 54.203125 27.027344 53.917969 27.832031 53.917969 C 28.632812 53.917969 29.261719 54.222656 29.71875 54.828125 C 30.179688 55.433594 30.40625 56.265625 30.40625 57.320312 Z M 29.277344 57.289062 C 29.277344 56.519531 29.128906 55.925781 28.832031 55.507812 C 28.535156 55.085938 28.105469 54.878906 27.550781 54.878906 C 26.804688 54.878906 26.269531 55.222656 25.945312 55.917969 L 25.945312 58.769531 C 26.289062 59.464844 26.828125 59.808594 27.5625 59.808594 C 28.101562 59.808594 28.523438 59.601562 28.824219 59.183594 C 29.125 58.761719 29.277344 58.132812 29.277344 57.289062 Z M 37.410156 57.3125 L 37.410156 57.417969 C 37.410156 58.421875 37.179688 59.230469 36.71875 59.847656 C 36.257812 60.460938 35.636719 60.769531 34.851562 60.769531 C 34.046875 60.769531 33.417969 60.515625 32.960938 60.003906 L 32.960938 63.1875 L 31.828125 63.1875 L 31.828125 54.042969 L 32.859375 54.042969 L 32.914062 54.773438 C 33.375 54.203125 34.015625 53.917969 34.832031 53.917969 C 35.625 53.917969 36.253906 54.21875 36.714844 54.816406 C 37.175781 55.414062 37.410156 56.246094 37.410156 57.3125 Z M 36.28125 57.289062 C 36.28125 56.542969 36.121094 55.957031 35.804688 55.527344 C 35.484375 55.09375 35.050781 54.878906 34.496094 54.878906 C 33.8125 54.878906 33.300781 55.179688 32.960938 55.785156 L 32.960938 58.941406 C 33.296875 59.546875 33.8125 59.847656 34.507812 59.847656 C 35.050781 59.847656 35.480469 59.632812 35.800781 59.203125 C 36.121094 58.773438 36.28125 58.132812 36.28125 57.289062 Z M 44.105469 60.648438 L 42.921875 60.648438 C 42.855469 60.515625 42.804688 60.285156 42.761719 59.949219 C 42.238281 60.496094 41.609375 60.769531 40.882812 60.769531 C 40.230469 60.769531 39.699219 60.585938 39.28125 60.214844 C 38.863281 59.847656 38.652344 59.382812 38.652344 58.816406 C 38.652344 58.128906 38.914062 57.59375 39.4375 57.214844 C 39.960938 56.832031 40.699219 56.644531 41.644531 56.644531 L 42.746094 56.644531 L 42.746094 56.121094 C 42.746094 55.726562 42.628906 55.414062 42.390625 55.179688 C 42.15625 54.945312 41.808594 54.828125 41.347656 54.828125 C 40.945312 54.828125 40.605469 54.929688 40.332031 55.136719 C 40.0625 55.339844 39.925781 55.582031 39.925781 55.871094 L 38.789062 55.871094 C 38.789062 55.542969 38.90625 55.222656 39.140625 54.917969 C 39.375 54.609375 39.691406 54.367188 40.089844 54.1875 C 40.492188 54.007812 40.933594 53.917969 41.414062 53.917969 C 42.175781 53.917969 42.769531 54.109375 43.199219 54.488281 C 43.632812 54.871094 43.859375 55.394531 43.875 56.0625 L 43.875 59.101562 C 43.875 59.707031 43.949219 60.191406 44.105469 60.550781 Z M 41.046875 59.785156 C 41.402344 59.785156 41.738281 59.695312 42.054688 59.511719 C 42.371094 59.328125 42.601562 59.089844 42.746094 58.796875 L 42.746094 57.441406 L 41.859375 57.441406 C 40.476562 57.441406 39.785156 57.847656 39.785156 58.65625 C 39.785156 59.011719 39.902344 59.289062 40.136719 59.488281 C 40.375 59.6875 40.675781 59.785156 41.046875 59.785156 Z M 48.292969 59.847656 C 48.695312 59.847656 49.046875 59.722656 49.351562 59.480469 C 49.652344 59.238281 49.816406 58.933594 49.851562 58.566406 L 50.917969 58.566406 C 50.898438 58.945312 50.769531 59.304688 50.527344 59.644531 C 50.289062 59.988281 49.96875 60.261719 49.566406 60.464844 C 49.164062 60.667969 48.742188 60.769531 48.292969 60.769531 C 47.394531 60.769531 46.679688 60.46875 46.148438 59.867188 C 45.617188 59.265625 45.351562 58.445312 45.351562 57.402344 L 45.351562 57.214844 C 45.351562 56.574219 45.46875 56 45.703125 55.5 C 45.941406 55 46.28125 54.613281 46.722656 54.335938 C 47.164062 54.058594 47.683594 53.917969 48.289062 53.917969 C 49.027344 53.917969 49.644531 54.140625 50.132812 54.585938 C 50.625 55.027344 50.886719 55.605469 50.917969 56.3125 L 49.851562 56.3125 C 49.816406 55.886719 49.65625 55.535156 49.363281 55.261719 C 49.074219 54.984375 48.714844 54.847656 48.289062 54.847656 C 47.714844 54.847656 47.269531 55.050781 46.953125 55.464844 C 46.636719 55.878906 46.480469 56.476562 46.480469 57.257812 L 46.480469 57.472656 C 46.480469 58.234375 46.636719 58.820312 46.949219 59.230469 C 47.261719 59.640625 47.710938 59.847656 48.292969 59.847656 Z M 56.332031 60.648438 L 54.03125 57.589844 L 53.324219 58.324219 L 53.324219 60.648438 L 52.195312 60.648438 L 52.195312 51.269531 L 53.324219 51.269531 L 53.324219 56.941406 L 53.925781 56.214844 L 55.984375 54.042969 L 57.359375 54.042969 L 54.789062 56.800781 L 57.65625 60.648438 Z M 56.332031 60.648438 "/>
</g>
</svg>
